<?xml version="1.0" standalone="no"?>
<!DOCTYPE svg PUBLIC "-//W3C//DTD SVG 1.1//EN" "http://www.w3.org/Graphics/SVG/1.1/DTD/svg11.dtd">
<svg xmlns="http://www.w3.org/2000/svg">
<metadata>Generated by Fontastic.me</metadata>
<defs>
<font id="starry" horiz-adv-x="512">
<font-face font-family="starry" units-per-em="512" ascent="480" descent="-32"/>
<missing-glyph horiz-adv-x="512" />

<glyph glyph-name="acorn" unicode="&#2697;" d="M380 355c-31 24-71 37-114 39-2 11-3 23-4 34 0 23 4 39 12 49 6 6 15 9 27 8 8-1 14 5 15 12 0 7-5 14-12 15-26 2-42-8-50-18-25-28-19-81-15-100-40-3-78-17-107-39-35-27-54-62-54-100 0-3 0-6 1-9 0-8 6-14 14-15 1-80 18-134 51-166 28-28 64-34 95-36l1-16c0-7 6-13 13-13l0 0c8 0 14 6 13 14l0 15c42 2 76 16 101 42 33 34 50 87 51 159 8 1 15 7 15 16 1 3 1 6 1 9 0 38-19 73-54 100z m-124 13c82 0 150-50 151-111l-302 0c1 61 69 111 151 111z m92-279c-22-22-54-34-94-34-30 0-65 4-91 29-27 27-42 76-43 146l271 0c0-64-15-112-43-140z"/>
<glyph glyph-name="apple" unicode="&#2679;" d="M446 375c-36 37-91 52-165 44 3 6 7 12 12 17 14 14 21 42 15 59-4 10-11 16-21 17-7 0-14 0-21-1l-1 0c-13 0-26-6-35-16-18-19-23-54-24-82-58 10-102 0-134-29-20-19-34-47-41-81-6-28-6-61-2-95 6-40 20-79 43-113l-1-1c2-1 3-2 4-3 5-6 9-13 14-18 30-36 68-60 105-68 16-3 41-5 61-5 3 0 6 0 9 0 5 0 10 0 15 1 17 0 36 0 54 7 37 13 68 38 93 72 26 35 45 79 55 131 13 69 0 127-35 164z m-214 43c2 29 8 50 17 60 4 4 11 7 17 7l2 0 1 0c5 1 10 1 14 1 2-6-1-24-9-32-15-16-29-40-31-68-3 1-7 1-11 1 0 11 0 21 0 31z m92-385c-14-6-29-6-46-6-5 0-10 0-15-1-18 0-47 2-64 5-25 5-51 20-74 42 13 1 25 3 37 8l1 0c4 2 8 4 11 6 19 12 28 15 40 1l8-8c21-22 55-25 80-8l33 23c15 9 34 7 46-5l1-1 12-8c-20-23-44-39-70-48z m131 183c-9-45-24-83-45-114l-11 7c-21 21-54 24-78 7l-34-22c-14-10-34-8-46 4l-7 8c-12 14-26 20-42 17-12-1-23-8-32-13-3-2-6-4-8-5-3-1-36-13-57 4-21 30-35 65-40 102-4 33-9 113 35 154 26 24 65 31 116 22 0-5 1-9 1-11 0-1 0-2 0-3 0-7 6-13 14-12 8 0 16 0 24-1 0-1 1-1 1-1l1 0c37-5 55-25 56-26 4-5 13-6 18-1 6 5 6 13 1 18-1 2-18 21-53 31 0 4 0 7 1 11 73 10 125-2 157-35 39-41 34-106 28-141z m-76 104c-8-3-14-8-18-15-6-11-8-26-3-41 6-23 23-39 39-39 3 0 5 0 7 1 8 2 14 7 18 14 7 11 8 27 4 42-7 26-28 43-47 38z m26-70c-1-2-3-4-6-5-7-2-18 8-22 24-3 10-2 20 1 27 1 2 3 4 6 5 1 0 1 0 2 0 7 0 17-10 21-24 2-10 2-21-2-27z"/>
<glyph glyph-name="arrow" unicode="&#2704;" d="M510 22l-30 82c-2 7-9 12-15 12-5-1-10-4-11-9l-7-25-207 213 0 1 1 1-1 1 0 98-82 74 0 3-3 0-44 39-9-88-101-19 121-122 103 0 210-217-30-8c-5-1-8-6-8-11-1-6 4-13 11-15l81-31c2-1 5-1 7-1 4 0 8 1 11 4 4 5 5 11 3 18z m-335 312l-70-6-32 33 88-12z m45-15l-2 2-17 17-14 78 33-29z m-48 111l13-76-18 18-14 15 3 57z m-45 41l16-15-3-55-18 19z m-21-66l40-40-89 11-16 16z m24-102l-13 13 70 6 15-16 3-3z m296-258l32 8 9 33 24-65z"/>
<glyph glyph-name="badger" unicode="&#2585;" d="M507 235l-91 115 55 34-2 72-61 35-61-38 0-42c-26 16-53 24-81 24l-1 0c-41 0-76-16-103-34l-1 55-62 35-61-38 1-72 51-28-85-119-1 0c-7-12-5-27 6-35l159-118 16-43c4-10 13-17 24-17l86 0c11 0 21 8 25 19l11 38 170 120 1 0c5 5 9 11 10 18 1 6-1 13-5 19z m-99 219l30-17 1-36-30-18-30 17 0 36z m-337-54l-1 36 30 18 29-17 1-36-29-18z m-37-179l74 102 24-88c-11-2-20-9-23-19-3-10 0-21 8-28 8-7 19-9 29-5l15-56z m256-168l-76 0-10 26 94 0z m17 58l-109 0-61 227c16 17 66 65 128 65l1 0c41 0 80-22 117-66z m39 17l18 54c14-4 28 4 33 17 4 14-3 28-16 34l26 77 70-90z"/>
<glyph glyph-name="balloon" unicode="&#2680;" d="M429 384c-9 41-33 78-69 102-35 23-81 31-126 22-45-9-85-35-110-72-22-34-32-72-28-110 4-33 17-63 39-88l-43-22c-4-2-6-5-6-10 0-4 2-7 6-9l20-10c-11-13-32-42-32-77 0-27 11-52 34-74 20-19 45-31 72-34 27-4 55 1 79 14 35 18 50 17 57 14 2-1 6-3 8-11 2-5 8-8 13-6 5 1 8 7 6 12-3 11-10 20-20 24-17 7-41 2-73-16-21-11-44-15-67-12-23 3-45 13-61 30-19 18-28 38-28 59 0 32 23 59 30 67l22-11c2-1 4-1 5-1 2 0 4 1 6 2 4 2 5 6 5 10l-3 35 1-1c27-18 59-27 92-27 12 0 23 1 34 3 47 9 86 35 111 72 25 37 34 81 26 125z m-312-177l27 14 3-30z m264 67c-21-32-54-53-94-61-38-7-77 0-106 20-7 4-13 9-19 14-22 22-36 51-39 81-4 33 4 65 23 93 22 31 55 53 94 61 10 2 20 3 30 3 28 0 54-7 76-22 29-19 50-50 57-85 7-36-1-73-22-104z m-187 164c-13-10-22-25-24-38-1-7 1-15 6-21 6-7 14-10 24-10 12 0 26 5 39 15 13 11 22 25 23 38 1 8-1 16-5 21-13 15-40 13-63-5z m49-14c-1-8-8-17-17-24-15-12-30-13-34-8-2 2-2 4-2 6 1 8 7 18 17 25 9 7 19 10 26 10 4 0 7-1 8-3 2-1 2-4 2-6z"/>
<glyph glyph-name="broken-arrow" unicode="&#2705;" d="M220 239l36 68 125 28-4 19-124-28-85 45-168-36 74-59-17-75z m-35 52l-17-44-35-8 38 49z m-58 8l-52 32 17 4 0-2 75-25z m-34-29l32 7 0 0 0 0 16 4-39-49-19-5z m114-14l-16-4 17 44 18 4 0 0 5 1z m16 63l-3 0-16-4-77 27 38 8z m-172 7l-1-2 49-31-12-2-42 34z m460-266l-29 81c-3 7-10 12-17 12-5 0-9-4-11-9l-7-24-115 118-14-13 117-121-28-8c-6-1-9-6-9-11-1-7 4-14 11-16l80-30c3-1 5-2 8-2 4 0 8 2 11 5 4 4 5 11 3 18z m-81 22l29 8 9 31 22-61z m-149 341l21-12 12-22c1-2 4-4 7-4l0 0c3 0 5 2 7 4l11 23 20 12c3 1 4 4 4 7 0 2-1 5-4 6l-21 12-12 22c-1 2-4 4-6 4-3-1-6-2-7-5l-11-22-21-12c-2-1-4-4-4-7 0-3 2-5 4-6z m29 15c1 1 2 2 3 3l7 14 7-14c1-1 2-2 3-3l15-8-14-8c-2-1-3-2-3-3l-7-14-8 14c-1 1-2 2-3 3l-14 7z m-23-296l-28 16-16 29c-1 3-4 4-7 4-3 0-6-2-7-4l-15-30-28-16c-2-2-4-4-4-7 0-3 2-6 4-7l29-16 15-29c2-3 4-4 7-4l0 0c3 0 6 2 7 4l15 30 28 16c2 2 4 4 4 7 0 3-2 6-4 7z m-36-20c-1 0-2-2-3-3l-11-22-12 22c0 1-1 2-3 3l-22 12 22 13c1 0 2 2 3 3l11 22 12-22c1-1 2-2 3-3l22-12z m135 139l13-8c0 0 1 0 1-1l7-13c0-2 2-2 3-2 1 0 3 0 3 2l7 13c0 1 1 1 1 2l12 7c2 1 2 2 2 3 0 2 0 3-2 4l-12 7c-1 0-1 1-1 1l-7 14c-1 1-2 2-3 2-2 0-3-1-3-2l-7-14c0 0-1-1-1-1l-13-8c-1 0-1-2-1-3 0-1 0-3 1-3z"/>
<glyph glyph-name="bubbles" unicode="&#161;" d="M202 275c61 0 111 49 111 110 0 61-50 111-111 111-61 0-110-50-110-111 0-60 49-110 110-110z m0 195c47 0 85-38 85-85 0-46-38-84-85-84-46 0-84 38-84 84 0 47 38 85 84 85z m-70-199c-73 0-132-59-132-132 0-73 59-132 132-132 73 0 132 59 132 132 0 73-59 132-132 132z m0-238c-59 0-106 47-106 106 0 59 47 106 106 106 58 0 106-47 106-106 0-58-48-106-106-106z m371 206l-70 40-39 73c-3 6-9 10-15 10-7 0-13-4-16-10l-38-73-70-40c-6-3-9-9-9-16 0-6 3-12 9-15l70-40 38-74c3-6 9-9 16-9 6 0 12 3 15 9l39 74 70 40c6 3 9 9 9 15 0 7-3 13-9 16z m-87-49c-3-1-5-4-6-7l-31-58-31 58c-1 3-4 6-7 8l-57 32 57 33c3 2 6 4 7 7l31 59 31-59c1-3 4-5 6-7l58-33z m36 146c31 0 55 25 55 55 0 31-24 56-55 56-30 0-55-25-55-56 0-30 25-55 55-55z m0 90c19 0 35-15 35-35 0-19-16-34-35-34-19 0-34 15-34 34 0 20 15 35 34 35z m-323-347l7-30c66 15 81 76 82 79l-30 7c-1 0-12-45-59-56z m111 250c16 16 24 33 24 52 0 26-17 43-19 45l-22-22c0 0 10-10 10-23 0-10-5-20-15-30z m115 98c21 0 39 17 39 39 0 21-18 39-39 39-22 0-39-18-39-39 0-22 17-39 39-39z m0 57c10 0 18-8 18-18 0-10-8-18-18-18-10 0-18 8-18 18 0 10 8 18 18 18z"/>
<glyph glyph-name="candle" unicode="&#2610;" d="M443 122c-15 31-38 37-56 36-23 0-41-8-52-23-12-16-13-35-12-48l-17 1 0 126c6 1 13 3 18 8 5 4 9 11 9 19l1 47c0 10 0 21-1 31-3 19-22 32-44 32l-50 0 0 17c22-3 47 3 59 34 5 14 1 39-13 49-21 14-40 42-48 53-3 5-9 8-15 8-6 0-11-2-15-7l-16-20c-34-34-46-64-37-88 5-14 17-26 36-33 5-2 11-3 16-4l0-9-56 0c-18 0-33-10-36-24-6-22 0-35 5-42 6-7 14-12 25-13l0-175-29 2 0 0c-28 0-51-19-51-41l0-17c0-23 23-41 51-41l224 0c28 0 51 18 51 41l0 1c0 0 0 0 0 1 28 3 42 17 49 28 12 18 10 39 4 51z m-264 284c-5 13 6 35 31 61l11 13c11-16 29-37 48-51 3-2 5-13 4-17-4-10-11-21-34-17l0 34-33 0 0-42c-10 3-23 9-27 19z m18-196l0-1c6-2 12-4 18-4 7 0 14 2 21 5 7 5 11 11 11 19l0 40 10 0 0-24c0-10 2-19 15-27 2-1 3-2 5-3l0-123-104 7 0 172 12 0 0-43c0-8 5-15 12-18z m-56 93c-1 2-2 7 0 16 1 1 4 3 9 3l139 0c9 0 15-4 15-7 1-9 2-17 1-26l-1-46c-4-2-9-2-14-1-1 0-2 0-3 0-1 1-1 1-1 1 0 0 0 1 0 2l0 34c0 10-9 19-21 19l-27 0c-11 0-20-9-20-19l0-45c-1 0-3 0-4 0l0 45c0 11-10 20-22 20l-34 1-1 0c-8-1-14 1-16 3z m220-262c0-6-10-12-22-12l-224 0c-13 0-22 6-22 12l0 17c0 5 9 12 21 12l224-13 1 0c13 0 22-9 22-15z m54 45c-7-10-20-15-39-15-6 6-15 11-24 13-1 9-1 24 6 34 6 7 16 11 30 12 14 0 23-6 30-20 1-4 3-15-3-24z"/>
<glyph glyph-name="cauldron" unicode="&#2584;" d="M452 312l2 0 0 0 2 0c13 1 20 9 26 16 15 21 15 44-3 62-4 4-10 10-22 10l-142 0c9 21 2 45-16 59-18 14-43 14-61 0-18-14-25-38-16-59l-167 0c-11 0-21-6-27-14-12-19-12-41 1-60 6-9 15-14 26-14 10 0 15-1 15-1l1 0c-12-21-28-53-37-86-11-41-9-76 5-104 15-29 42-49 80-60l-34-41 24-20 44 53c6-1 12-1 18-2l1 0 180 0c6 0 11 1 17 2l39-51 25 19-32 41c28 9 60 28 77 62 24 47 11 110-36 187z m-203 107c0 11 8 20 19 20 11 0 20-8 20-19 0-11-8-20-19-20l-1 0c-11 0-19 9-19 19z m-195-76c-2 3-8 13 0 26 0 0 1 0 1 0l212 0c0 0 1 0 1 0 1 0 2 0 2 0l186 0 1-1c3-3 9-9 0-22-1-1-2-2-3-3l0 0-3 0-123 0c-8 0-15-3-20-9-5-5-8-11-7-18 2-49-6-61-9-64-1-1-3-3-12-1-3 0-5 3-5 6-3 15-3 45-3 54 0 21-16 37-36 37l-30 0c-7 0-15-3-20-9-6-5-9-13-9-21 2-88-10-111-13-115l-2-1c-4-2-11-1-14 0-13 16-9 74-8 94 0 2 0 3 0 5 0 4 1 16-9 27-9 9-23 13-44 15l-32 0 0 0c0 0-1 0-1 0z m403-144c4-24 2-44-7-61-23-48-93-56-99-56l-178 0c-55 5-91 23-106 53-11 21-12 49-3 82 9 32 24 62 35 81 2 4 3 7 4 11 4-1 6-2 6-3 1 0 1 0 1-4-1-1-1-3-1-5-2-44-3-94 17-117 7-6 18-10 30-10 6 0 12 1 17 3 5 1 8 4 11 7 17 16 25 61 24 137l28 0c3 0 5-2 5-6 0-18 1-43 3-59 3-16 15-29 31-32 15-2 28 1 37 9 15 13 21 38 19 83l76 0c1-4 2-7 4-10 25-39 40-74 46-103z m-293 209c23 0 42 19 42 42 0 24-19 43-42 43-24 0-43-19-43-43 0-23 19-42 43-42z m0 54c6 0 12-5 12-12-1-6-6-12-12-12-7 0-12 6-12 12 0 7 5 12 12 12z m200-35c24 0 43 19 43 43 0 23-19 42-43 42-23 0-42-19-42-42 0-24 19-43 42-43z m0 54c7 0 12-5 12-12 0-6-5-11-12-11-6 0-12 5-12 12 0 6 6 11 12 11z"/>
<glyph glyph-name="chalice" unicode="&#2583;" d="M418 328c12 35 22 93 7 171l-3 13-185 0 0 0-147 0-3-13c-15-78-5-136 7-171 13-41 35-75 60-90 16-9 70-14 89-15l1-46c-26-8-45-31-45-59 0-27 19-51 45-58l0-29-110 0 0-31 248 0 0 31-107 0 0 29c26 7 45 31 45 58 0 28-19 52-45 59l-1 47c19 1 68 5 84 15 25 14 47 48 60 89z m-303 153l160 0 0 0 122 0c7-45 5-81 0-110l-282 0c-5 29-7 65 0 110z m174-363c0-16-13-29-30-29-16 0-29 13-29 29 0 16 13 30 29 30 8 0 16-3 21-9 6-6 9-13 9-21z m54 147c-8-4-47-10-69-10l0 0-30-1c-28 1-69 7-75 11-14 8-33 32-46 72 0 1-1 3-1 4l268 0c0-1-1-2-1-3-13-41-32-64-46-73z"/>
<glyph glyph-name="cherry" unicode="&#2689;" d="M497 168c-8 47-51 83-102 88-1 23-11 86-87 176l71 13c13 2 23 14 23 28l-1 12c0 7-3 15-8 20-6 5-13 7-21 7l-238-15c-9-1-17-6-21-14-4-8-3-17 1-25l21-32c7-11 20-18 34-18 2 0 5 0 7 0l88 16c8-42 23-164-58-222-2 2-5 4-8 6-40 30-95 31-136 2-41-30-58-82-43-130 16-47 60-80 110-80 6 0 12 0 17 1 40 6 74 32 90 69 15 37 11 80-12 112 80 60 77 171 69 227 25-30 54-71 68-113 6-19 8-33 8-40l-3-1c-32-4-61-20-79-45-16-21-23-47-18-73 8-51 58-88 114-88 5 0 11 0 16 1 33 4 62 20 80 45 16 21 22 47 18 73z m-296-106c-14-19-35-32-59-35-4-1-8-1-13-1-47 0-86 36-89 83-3 47 30 88 76 95 5 1 9 1 13 1 45 0 82-33 89-76 3-24-3-48-17-67z m-29 372c-6-1-12 1-15 6l-20 31 237 15c0 0 1 0 1 0 0-1 1-1 0-2l1-12c0-1-1-1-2-1z m286-324c-14-18-37-31-62-34-4-1-9-1-13-1-44 0-82 28-89 66-3 19 2 38 14 54 14 18 36 31 62 34 4 1 8 1 13 1 44 0 82-28 88-66 3-19-2-38-13-54z m-327 76l-4-1c-21-4-36-13-45-24-3-4-4-10-1-15 2-4 7-7 12-7 2 0 4 0 6 1 10 5 24 9 33 12 5 1 8 4 10 8 2 4 1 9-1 13z m-1-21c0 0 0-1-1-1-10-2-24-7-36-12 0 0 0 0 0 0 0 0 0 0-1 0 0 0 0 0 0 1 7 8 18 15 34 19l4-7c0 0 0 0 0 0z m243 42l-21 10-3-3c-16-13-25-26-27-39-1-6 2-12 8-14 2-1 3-1 5-1 5 0 9 2 12 5 8 12 22 24 28 28 2 2 3 5 3 8-1 3-3 5-5 6z m-37-34c0 0 0 0 0 0-1 0-1 0-1 0 1 9 8 19 19 28l7-3c-8-6-18-15-25-25z"/>
<glyph glyph-name="cloud" unicode="&#97;" d="M438 92l-376 0-16 5 0 0c-34 15-51 52-45 96 6 38 21 65 44 80 22 14 51 16 83 6l15-4c3 32 10 64 25 91 19 32 50 50 93 53 39 3 68-6 91-28 18-18 29-41 37-63 14 5 30 2 40 0 17-4 33-12 42-21 25-23 41-64 41-103 0-53-26-97-66-110l-1 0z m-372 27l369 0 3 1c28 10 47 44 47 85 0 36-17 68-32 82-14 13-47 21-57 14l-1-1-2-1c-1-2-3-4-6-5l-11-5-6 11c-2 1-2 4-2 6 0 0 0 0 0 1-20 58-44 90-104 85-35-3-58-16-72-40-15-24-20-57-23-89 0-1 0-2 0-3 0-2 0-9-6-14-6-4-12-2-15-1l-28 7c-17 6-41 10-60-2-17-10-27-31-32-61-1-12-4-51 28-66z m329 188c0-1 0-3 0-5 0 2 0 4 0 5z m-26 4c-1-1-1-3-1-5 0 2 0 4 1 5z"/>
<glyph glyph-name="cloudy" unicode="&#2662;" d="M478 319c-9 7-22 13-36 17-7 1-20 3-32 0-17 40-42 74-106 70-36-3-62-17-78-44-5 0-11 0-16 0-35-3-60-17-75-43-13-20-17-44-20-68l-11 2c-26 8-50 7-68-5-18-11-30-33-35-62-5-35 9-64 37-76l1 0 12-4 300 0 6 1 1 1c20 6 36 21 45 42l47 0 5 1 1 1c34 10 56 44 56 87 0 30-14 62-34 80z m-62-1c0-2 0-4-1-6 1 2 1 4 1 6z m-65-186l-2-1-294 0-8 2c-24 11-22 41-21 49 3 22 11 37 24 45 14 9 33 6 47 2l22-5c5-2 10-2 14 1 5 4 5 10 5 12 0 1 0 1 0 2 7 60 20 93 74 97 24 2 41-3 55-15 13-13 21-32 27-49l0 0c0-2 0-4 1-6l6-10 10 5c3 1 4 3 6 5l1 0 1 1c7 5 33-1 43-11 12-11 25-35 25-62 0-31-14-55-36-62z m-33 138c1 1 1 2 1 3 0-1 0-2-1-3z m131-94l-2-1-37 0c1 6 2 13 2 19 0 31-13 63-33 81-14 12-45 23-66 16-11 30-28 56-60 66 12 14 29 22 53 24 25 1 43-4 57-16 13-13 21-32 28-49 0 0 0 0 0 0 0-2 0-4 1-5l6-11 10 5c2 1 4 3 6 5l1 0 1 1c8 5 34-1 45-11 12-11 25-35 25-62 1-30-14-55-37-62z"/>
<glyph glyph-name="crown" unicode="&#2706;" d="M500 301c-9 7-19 10-30 8-17-3-29-17-29-34 0-1 0-2 0-2-1-2-1-3-1-4 0 0 0 0 0 0l-37-21 6 116c12 7 18 21 17 38-1 22-19 38-42 37-24-1-40-18-40-42 0-5 1-11 4-16l-2-4-33-67-19 110c2 2 4 5 6 8l-1 0c6 9 8 20 7 30-1 25-21 46-44 47-13 1-26-3-36-12-10-10-16-24-16-38 0-14 6-27 16-37l-28-112-32 70-1 3-1 1c3 5 4 11 4 16 0 24-16 41-40 42-23 1-41-15-42-37-1-17 5-31 17-38l6-116-37 21c0 0 0 0 0 0 0 1 0 2-1 3 0 1 0 2 0 3 0 17-12 31-29 34-11 2-21-1-30-8-7-7-12-16-12-26 0-15 9-29 22-35l0 0c1-1 1-2 1-3l1-1 24-150 0-60c0-10 8-19 18-19l379 0c10 0 19 9 19 19l0 57 24 155 0 0c1 1 1 2 2 3l0 0c12 6 22 20 22 35 0 10-5 19-12 26z m-21-37c-3-2-6-4-8-6l-1-1c-3-4-6-9-7-14l0-2-24-150-116-1c-8 0-13-5-13-13 0-7 5-13 13-13l115 1 0-33-364 0 0 32 127 1c7 0 12 5 12 13 0 7-5 13-13 13l-127-1-24 150 0 2c-1 5-4 10-7 14l-1 0c-2 3-5 5-8 7-4 1-7 7-7 11 0 2 1 4 3 6 3 2 6 3 9 2 4-1 7-4 7-9 0-1 0-3 1-4 0-1 0-1 0-2 0-5 2-10 5-15 0-1 1-2 2-3l2-2 57-32c5-3 11-3 16-1 5 3 9 9 8 15l-7 136-1 6c0 6-4 11-10 13-6 2-6 10-6 16 0 7 7 12 15 12 12-1 15-9 15-16 0-2-1-5-3-7-2-4-3-10-1-14l2-5 2-4 45-97c2-6 9-10 15-10 7 1 13 6 14 13l36 143c2 7 0 15-5 20l-1 1-2 1c-5 5-8 11-8 18 0 7 3 14 8 19 4 4 10 6 16 6 11-1 20-11 20-23 1-8-2-16-8-22l0 0c-4-5-6-12-4-18l25-142 0-1c1-6 7-11 14-12 6-1 13 3 16 9l47 96 2 4 2 5c2 4 1 10-2 14-1 2-2 5-2 7 0 7 3 15 15 16 8 0 15-5 15-12 0-6 0-14-6-16-6-2-10-7-10-13l-1-6-7-135 0-1c-1-6 3-12 8-14 5-3 11-3 16 0l57 32 2 2c1 1 2 2 2 3 3 5 5 10 5 15 0 1 0 2 0 2 1 1 1 3 1 4 0 5 3 9 7 9 3 1 6 0 9-2 2-1 3-4 3-6 0-4-3-10-7-11z m-148-114l-35 19-20 35c-3 6-9 9-15 9l0 0c-7 0-13-3-16-9l-18-36-35-20c-5-3-9-9-9-16 0-6 4-12 10-15l34-19 20-35c3-6 9-10 15-10l1 0c6 1 12 4 15 10l19 36 34 20c6 3 9 9 9 16 0 6-4 12-9 15z m-49-30c-3-2-6-4-7-7l-13-24-13 24c-2 3-4 5-7 7l-24 13 24 14c3 1 5 4 7 7l12 24 13-24c2-3 4-5 7-7l25-13z"/>
<glyph glyph-name="crystal" unicode="&#2707;" d="M491 302l-101 147-98-49-20 52-168 60-34-66-57-111 135-221 51-30 33-74c0-3 3-6 6-8 2-1 4-2 7-2 2 0 4 0 6 1l85 32 133 183z m-276-204l-3 6 16 196 9-38-5-204-17 39 0 1z m-58 216l43-118-5-58-87 141-2 40z m94-28l-15 63 85 43z m5-36l77-8-81-179z m88 11l-80 8 91 140 0 0 23 12 32-104z m66 123l49-70-28 5z m-135 7l-63-31-9-116-28 79 41 86 43 21z m-61 39l-55 41 80-28z m-103 53l87-66-40-83-53 5-5 120-1 0z m-29-58l4-84-46 4z m-40-100l44-4 3-49 98-158-25 14z m281-275l-67-25 99 219 66 56 47-8-18-67z m-243 89l-13 7c0 0-1 1-1 2l-7 13c-1 1-2 2-3 2-1 0-3-1-3-2l-7-13c0-1-1-2-1-2l-13-7c-1-1-2-2-2-4 0-1 1-2 2-3l13-7c0-1 1-1 1-2l7-13c1-2 2-2 3-2 1 0 3 0 3 2l7 13c0 1 1 1 1 2l13 7c1 1 2 2 2 3 0 2-1 3-2 4z m415 317l-22 12-12 23c-2 2-4 4-7 4-3 0-6-2-7-5l-12-23-21-13c-3-1-4-4-4-6 0-3 1-6 4-7l22-12 12-23c2-3 4-4 7-4l0 0c3 0 6 1 7 4l12 23 21 13c3 2 4 4 4 7 0 3-2 5-4 7z m-30-16c-1-1-2-2-3-4l-7-15-8 15c-1 2-2 3-3 3l-16 9 15 9c2 0 3 2 3 3l8 15 8-15c1-1 2-2 3-3l15-8z m23-385l-17 10c-1 1-2 2-2 3l-10 19c-1 1-3 3-5 3-2 0-3-2-4-3l-10-20c0 0-1-1-2-2l-17-10c-2-1-3-3-3-5 0-2 1-4 3-5l17-10c1-1 2-2 2-2l10-20c1-1 3-2 5-2 2 0 3 1 4 2l10 20c0 1 1 1 2 2l17 10c2 1 3 3 3 5 0 2-1 4-3 5z"/>
<glyph glyph-name="curse-book" unicode="&#2582;" d="M410 512l-305 0c-24 0-44-18-44-41l0-396c0-20 17-36 38-36l20 0 0-19c0-7 4-13 10-17 7-4 16-4 23 0l19 9 19-9c7-4 16-4 23 0 6 4 10 10 10 17l0 19 189 0c16 0 29 12 29 28l3 61c4 6 7 14 7 21l0 325c0 21-19 38-41 38z m-217-478l-11 6c-7 3-15 3-22 0l-11-6 0 39 44 0z m217 37l-187 0 0 12c0 11-10 20-22 20l-60 0c-12 0-22-9-22-20l0-12-20 0c-4 0-6 2-6 4l0 38 318-1 0 0z m9 78c0-1 0-2-1-3-2-1-5-2-7-2l-318 1 0 326c0 5 6 9 12 9l305 0c5 0 9-3 9-6z m-100 201l63 41-82 70-120-101 48-35-91-32 54-43-47-70 185 48-49 36 115 43z m-48-111l-69-18 24 34-37 29 92 32-60 45 79 66 40-33-70-45 65-38-108-40z"/>
<glyph glyph-name="dark-magic" unicode="&#2611;" d="M451 474c0 21-19 38-41 38l-305 0c-24 0-44-18-44-41l0-396c0-20 17-36 38-36l20 0 0-19c0-7 4-13 10-17 7-4 16-4 23 0l19 9 19-9c7-4 16-4 23 0 6 4 10 10 10 17l0 19 189 0c16 0 29 12 29 28l3 61c4 6 7 14 7 21z m-358-3c0 5 6 9 12 9l305 0c5 0 9-3 9-6l0-325c0-1 0-2-1-3-2-1-5-2-7-2l-318 0z m100-437l-11 6c-7 3-15 3-22 0l-11-6 0 39 44 0z m30 37l0 12c0 11-10 20-22 20l-60 0c-12 0-22-9-22-20l0-12-20 0c-4 0-6 2-6 4l0 38 318-1 0 0-1-41z m33 370c-69 0-125-50-125-112 0-39 23-76 62-97l0 0 9-45 106 0 16 47c36 20 58 57 58 95 0 62-56 112-126 112z m46-189l1-1-13-38-2 0 0 28-26 0 0-28-10 0 0 28-26 0 0-28-3 0-7 36 1 1c-4 2-8 3-12 5l-5-9 5 9c-30 16-48 44-48 74 0 48 44 86 99 86 55 0 100-38 100-86 0-32-21-63-54-77z m-108 37l17 20 37-32-17-20z m78-11l37 32 17-20-37-32z"/>
<glyph glyph-name="divination" unicode="&#2709;" d="M512 394c0 1 0 2 0 3 0 0 0 1 0 2 0 21-12 50-68 70-38 14-89 21-148 21-57 0-109-8-147-22-54-22-66-51-66-72 0-3 1-5 1-7l0 0c0-3 0-6 0-9-15 7-29 8-41 5-18-6-31-22-38-47-7-24-6-49 4-75 8-23 23-43 42-57 16-13 37-22 61-29-17-12-31-30-31-55 0-62 81-100 213-100 58 0 110 8 148 25 56 23 67 55 67 78 0 17-6 32-19 45-8 7-17 14-27 18 17 30 29 67 37 109 6 32 10 65 12 97z m-353 50c34 14 83 21 137 21 110 0 190-28 190-66 0-7-3-14-8-20-19 15-75 55-182 55l-1 0c-95 0-156-41-178-58-5 6-8 12-8 20 0 10 6 31 50 48z m298-81c-32-16-88-25-159-25-59 0-107 5-140 15-6 2-13 5-19 8 24 17 77 47 156 47l1 0c62 0 105-14 130-26 11-6 21-12 31-19z m-428-32c5 16 12 26 21 29 13 4 29-5 36-10 1-20 3-40 6-54 6-36 16-68 29-95-22 6-40 14-55 25-27 21-49 64-37 105z m455-206c0-45-80-78-190-78-112 0-188 30-188 75 0 18 12 32 36 43 5-7 11-15 18-22 35-37 81-56 136-56l0 0c55 0 101 20 136 57 6 7 12 15 18 22 23-10 34-24 34-41z m-71 37c-30-33-70-50-118-50-1 0-2 0-3 0-46 1-85 17-114 49-29 31-50 78-61 139-2 12-4 30-5 47 12-8 26-14 39-18 36-11 85-17 147-17 87 0 150 13 184 37-2-18-5-33-7-47-11-61-32-108-62-140z m-35 64c0 9-15 26-24 34-13 12-33 26-58 26-24 0-45-14-58-26-9-8-24-25-24-34 0-9 14-25 23-33l-19-19 15-14 20 21c5-3 10-6 15-8l-5-31 19-3 5 29c3 0 5 0 8 0 4 0 8 0 12 1l8-30 19 6-8 30-1-1c5 3 11 5 15 9l14-23 17 11-15 24-1-1c8 7 23 23 23 32z m-83-39c-30 0-55 29-61 39 6 10 33 41 62 41 30 0 55-31 62-41-7-10-33-39-63-39z m1 71c-16 0-29-14-29-32 0-18 13-32 29-32 16 0 30 14 30 32 0 18-14 32-30 32z m0-44c-5 0-10 5-10 12 0 7 5 12 10 12 6 0 10-5 10-12 0-7-4-12-10-12z m-87 50l-11 7c-1 0-1 1-1 1l-6 12c-1 1-2 2-3 2-1 0-2 0-3-1l-6-12c0 0-1-1-1-1l-12-6c-1 0-2-1-2-2 0-2 1-3 2-3l11-7c0-1 1-1 1-2l5-12c1-1 2-1 3-1 1-1 3 0 3 1l7 11c0 1 0 1 1 2l11 5c1 1 2 2 2 3 0 1 0 2-1 3z m228 9l-13 8c0 1-1 1-1 2l-7 14c-1 2-2 3-3 3-2 0-3-1-4-2l-7-13c-1-1-1-2-2-2l-13-6c-2-1-2-2-2-4 0-1 0-3 2-3l13-9c0 0 1-1 1-2l7-14c1-1 2-2 3-2 2-1 3 0 4 1l7 14c1 0 1 1 2 1l13 7c2 0 2 2 2 3 0 1 0 3-2 4z"/>
<glyph glyph-name="door-knocker" unicode="&#2581;" d="M87 426l31 9-7 22 75-29c4-2 8-2 12-2 8 0 15 2 21 8l49 46 43-43c9-8 23-11 34-6l55 22 0-22 32 0 0 23c0 10-5 20-14 26-9 6-20 7-29 3l-55-22-43 42c-12 12-32 12-44 1l-49-46-76 29c-11 5-24 2-33-6-8-8-12-20-9-32z m65-118l34 0 0-32-34 0z m178 0l34 0 0-32-34 0z m153-127l25 39c5 8 5 18 1 26l-41 92c6 8 10 18 10 28 0 27-26 49-57 49-25 0-46-14-54-33-68 45-157 44-224-3-7 21-29 36-55 36-32 0-57-22-57-49 0-12 5-23 13-31l-41-92c-4-8-4-18 1-26l25-39-24-68c-3-9-2-18 3-25 6-8 14-12 23-12l73 0 0 32-67 0 23 65c3 8 2 17-3 24l-24 38 39 87c5-2 10-2 16-2l0 0c-12-23-18-48-18-73 0-59 33-111 82-142 1-44 35-81 79-90 6-8 14-12 24-12 9 0 17 4 23 12 44 9 77 45 80 88 51 31 84 84 84 144 0 25-6 50-17 73 5 0 10 1 16 3l38-85-24-38c-5-7-6-16-3-24l23-65-67 0 0-32 73 0c9 0 17 4 23 11 5 8 6 17 3 26z m-62 202c14 0 25-8 25-17 0-9-11-17-25-17-13 0-25 8-25 17 0 9 12 17 25 17z m-358-17c0 9 11 17 25 17 13 0 25-8 25-17 0-9-12-17-25-17-14 0-25 8-25 17z m206-183l1 35c13 3 25 11 36 22 10-6 16-14 16-22 0-15-21-31-53-35z m-15 62c-7 1-14 3-19 7 13 2 27 2 40 0-7-5-14-7-21-7z m-50-4c7-8 21-19 37-23l0-35c-32 3-54 20-54 35 0 8 6 16 17 23z m6-81c28-9 59-9 87-1 15-9 26-23 30-39-46-21-99-20-144 2 5 15 15 28 28 37z m71-118c-5 10-15 16-26 16-11 0-21-6-26-16-22 8-39 24-46 45 46-18 97-19 143-2-7-20-24-36-46-43z m71 93c-5 15-14 28-26 39 15 11 25 27 25 44 0 36-42 65-96 65-54 0-96-29-96-65 0-17 9-33 24-44-11-10-20-23-25-37-34 26-56 64-56 107 0 77 69 139 154 139 85 0 154-62 154-139 0-44-22-83-58-109z"/>
<glyph glyph-name="dueling" unicode="&#2580;" d="M501 90c-5 4-12 6-36 8l-82 73c2 16-3 25-8 30-6 6-16 10-27 10l-1 0c-4 0-9-1-14-2l1-5c-2 3-4 6-6 8l-25 23 178 160c6 6 10 14 9 22 0 8-3 16-10 21l0 0c-13 11-31 11-44 0l-179-162-181 163c-13 11-31 11-44 0l0 0c-7-5-10-13-10-21-1-8 3-16 9-22l180-161-27-24c-2-2-4-5-6-8l1 5c-5 1-10 2-14 2-12 0-22-4-28-10-8-9-9-20-8-30l-82-73c-24-2-31-4-36-8-7-6-11-16-11-25 0-13 7-27 19-37 11-10 27-16 42-16 10 0 18 2 25 9 6 5 10 17 13 27l83 75c16-2 28 1 36 10 10 11 8 26 6 33 2 1 3 2 5 4l28 25 26-24c2-2 3-3 5-4-2-7-4-22 6-33 8-8 20-12 36-10l83-75c3-10 7-22 13-27 7-6 16-9 25-9 15 0 31 6 42 16 12 10 19 24 19 37 0 9-4 19-11 25z m-453 325c-1 1-1 2-1 3 0 0 0 1 1 2l1 0c3 2 7 2 10 0l179-161-8-7z m151-266c-2-2-7-3-19-1l-6 1-99-89 0-1c0-5-4-17-6-21-6-4-22-1-33 9-6 5-10 11-10 17 0 2 0 4 1 5 5 1 19 2 24 3l5 0 1-1 1 1 1 0 0 2 98 88-2 7c-2 8-1 12 0 13 2 3 12 3 18 1l2 7c0-8 4-16 10-21l0-1c4-3 9-5 14-7 1-3 2-10 0-12z m13 38c-3-2-7-2-10 0l-1 1c0 0-1 1-1 2 0 1 1 2 1 2l252 227c3 2 7 2 10 0l1 0c1-1 1-2 1-2 0-1 0-2-1-3z m63 24l9 7 27-25c0 0 1-1 1-2 0-1-1-2-1-2l-1-1c-3-2-7-2-10 1z m201-163c-11-10-27-13-33-9-2 4-6 16-6 21l0 1-99 89-6-1c-12-2-17-1-19 1-2 2-1 8 0 12 5 1 10 4 14 7l0 1c6 5 10 13 10 21l2-7c6 2 16 2 18-1 1-1 2-5 0-13l-2-7 98-89-1-1 2 0 1-1 1 1 5 0c5-1 18-2 24-3 1-1 1-3 1-5 0-6-4-12-10-17z m-271 319l20 18-64 69 82-32 24 49 27-49 60 25-50-56 20-18 83 94c5 5 6 13 2 19-5 6-13 8-21 5l-82-35-18 33c-4 8-12 12-21 12l0 0c-9 0-17-5-21-13l-16-32-94 37c-8 3-17 0-21-7-5-7-4-16 1-22z"/>
<glyph glyph-name="eagle" unicode="&#2595;" d="M508 86c-5 35-28 67-69 96l-1 330-19-4c-2 0-27-6-52-32-7-8-13-16-18-25-26-3-51-16-69-36-21-23-33-54-36-93l-240 172-1-29c0-2 0-34 17-76 3-6 6-13 10-20-11-22-13-47-7-71 5-20 15-39 31-57l-2 1c-1-1-14-28-1-61 13-36 50-64 108-86l11 29c-49 18-80 41-90 67-4 9-5 19-3 28 23-19 52-37 89-54l13 28c-72 33-116 71-126 112-3 10-3 21-1 32 21-27 52-56 97-79l14 28c-54 27-93 66-114 114-4 10-8 20-10 31l382-274c33-24 52-49 56-74 1-8 1-15 0-22-15 16-42 36-84 43-15 3-31 1-45-6l-118-54 13-28 118 54c8 4 18 5 27 4 58-10 78-49 78-51l11-23 15 20c1 1 21 28 16 66z m-196 317c6 5 14 10 22 13-9-27-13-59-13-96l31 0c-1 59 12 105 37 133 5 6 11 12 18 16l1-265-133 96c-1 48 11 83 37 103z"/>
<glyph glyph-name="eagle-flipped" unicode="&#2649;" d="M20 20l15-20 11 23c0 2 20 41 78 51 9 1 19 0 27-4l118-54 13 27-118 55c-14 7-30 9-45 6-42-7-69-27-84-44-1 8-1 15 0 23 4 25 23 50 56 74l382 274c-2-10-6-21-10-31-21-48-60-86-114-114l14-28c45 23 76 52 97 79 2-11 2-22-1-32-10-40-54-79-126-112l13-28c37 17 66 35 90 54 1-9 0-19-4-28-10-26-41-49-89-67l10-29c59 22 95 50 108 86 13 34 0 60-1 61l-2-1c16 18 26 37 31 57 6 24 4 49-7 71 4 7 7 14 9 20 18 42 18 75 18 76l-1 29-240-172c-3 39-15 71-36 93-18 20-43 33-69 36-5 9-12 17-18 25-25 26-50 32-52 32l-19 4-1-330c-41-29-64-61-69-96-5-38 15-65 16-66z m217 280l-133-96 1 266c7-5 13-11 18-17 25-28 38-74 37-132l31-1c0 37-4 69-13 96 8-3 16-7 22-13 26-20 38-55 37-103z"/>
<glyph glyph-name="eclipse-1" unicode="&#2663;" d="M471 129c-2 0-4 0-6 1l-49 25c-6 4-9 12-5 18 3 7 11 10 18 6l48-25c6-3 9-9 7-15-1-6-7-10-13-10z m-49 202c-6 0-12 4-13 10-2 6 1 12 6 15l46 26c7 3 15 1 18-6 4-6 2-14-5-18l-46-25c-2-2-4-2-6-2z m77-66l-83 0c-6 78-68 141-146 147l0 87c0 7-6 13-14 13-7 0-13-6-13-13l0-88c-77-7-137-69-142-146l-88 0c-7 0-13-6-13-13 0-8 6-14 13-14l88 0c8-74 67-133 142-141l0-84c0-7 6-13 13-13 8 0 14 6 14 13l0 84c7 1 15 2 22 3 1 0 1 0 2 1 65 15 114 70 121 137l84 0c7 0 13 6 13 14 0 7-6 13-13 13z m-371-11c0 68 52 125 119 131-15-10-29-23-40-38-43-56-44-134-1-190 9-12 20-23 32-32-64 10-110 65-110 129z m163-127c-26 9-48 25-64 46-17 23-26 50-26 79 0 58 39 109 95 125 1 1 2 1 3 2 55-18 92-71 90-129-2-58-42-108-98-122z m-256 228l53-28c7-4 15-1 18 6 4 6 1 14-6 18l-53 27c-6 4-14 1-18-5-3-7-1-15 6-18z m325-255c-2 4-6 7-11 7-5 0-10-3-12-7-3-4-2-10 0-14l29-50c2-4 7-7 12-7 5 0 9 3 12 7 2 4 2 10-1 14z m-209 307c4-6 12-8 18-5 7 4 9 12 5 18l-28 49c-2 5-7 8-12 8-5 0-9-3-12-7-2-4-2-10 1-14z m-59-232l-54-30c-7-4-9-12-5-18 3-7 11-9 18-5l54 30c6 4 9 12 5 18-4 6-12 9-18 5z m255 228c7-4 15-2 19 5l28 47c3 6 1 14-5 18-6 4-15 2-18-5l-28-47c-4-6-2-14 4-18z m-175-296c-6 4-15 2-18-4l-31-52c-4-6-1-14 5-18 6-4 15-2 18 4l31 52c4 6 1 15-5 18z"/>
<glyph glyph-name="eclipse" unicode="&#2599;" d="M256 512c-141 0-256-115-256-256 0-141 115-256 256-256 141 0 256 115 256 256 0 141-115 256-256 256z m226-256c0-8-1-16-1-23l-269 0c-1 9-1 19-1 28 1 4 1 9 1 13l269 0c1-6 1-12 1-18z m-265-54l258 0c-3-13-7-26-13-38l-234 0c-5 13-9 25-11 38z m0 102c3 15 7 29 12 43l234 0c6-14 10-28 14-43z m229 73l-204 0c6 12 12 23 19 34l159 0c10-10 19-22 26-34z m-133 97c26-6 50-18 72-33l-102 0c9 12 19 23 30 33z m-283-218c0 124 102 226 226 226 7 0 14-1 21-1-13-15-25-30-36-46-37-55-58-115-60-173-2-80 30-158 96-231-7 0-14-1-21-1-124 0-226 102-226 226z m256-190l92 0c-20-13-42-23-66-29-9 10-18 20-26 29z m130 31l-153 0c-8 12-15 24-22 37l205 0c-9-14-19-26-30-37z"/>
<glyph glyph-name="feather" unicode="&#2579;" d="M434 493c-3 2-6 4-7 5-5 6-13 7-20 4-7-3-11-10-10-18 4-78-32-146-63-189-20-28-43-54-68-76l-69-17c-18-4-32-17-40-34l-33-79c-11-5-23-7-35-7-27-1-47 13-61 40l-28-15c24-46 61-57 89-57l2 0c15 1 30 4 44 9l74-42c9-5 20-8 31-8 8-1 15 1 22 4 117 47 210 202 228 233 2 4 4 9 5 13l15 57 0 1c15 104-51 156-76 176z m-54-185c29 49 45 100 48 149 11-10 25-24 35-43-18-58-45-112-82-158-3-4-7-8-11-13z m-194-152c4 8 10 14 19 16l75 18 3 2c2 1 27 22 56 58l-7-46c-17-16-36-31-56-44-34-24-72-42-111-56z m64-114c-8-3-17-2-25 2l-51 30c27 9 52 20 77 34l0-3 76-13c-26-23-52-40-77-50z m140 115c-11-14-23-27-34-38l-67 11 4 3c38 26 72 56 102 91l47 4c-16-25-33-48-52-71z m89 165l-14-55c-1-2-1-4-2-5l-1-1-41-3c24 33 43 69 58 107 2-14 2-29 0-43z"/>
<glyph glyph-name="flower" unicode="&#2626;" d="M471 188l0 8-7 3c-5 2-10 2-14-1l-180-133 0 88c8-1 16-1 24-1 43 0 77 12 100 37 46 48 34 125 32 133l-1 8-7 3c-5 1-10 0-13-3l-135-121 0 73c20 1 73 7 94 45 19 35 6 85-38 150-2 3-6 5-10 5l-6 0-15-23c-9 16-19 32-29 48-2 3-6 5-10 5l-6 0-4-5c-11-16-22-33-31-51l-13 20c-2 4-6 6-10 6l-7 0-3-5c-45-65-58-115-38-150 23-42 85-45 99-45l1 0 0-73-137 122c-3 3-8 4-13 3l-7-3-2-7c-1-9-13-86 33-134 23-24 57-37 100-37 8 0 17 1 26 2l0-89-182 135c-4 3-9 3-14 1l-7-4 0-8c0-22 3-43 8-64 11-45 31-78 59-99 23-18 52-27 85-27 20 0 42 3 66 10 22-6 43-9 62-9 33 0 62 9 85 27 28 21 47 54 58 97 5 20 7 41 7 63z m-68 105c0-24-4-61-28-86-21-22-54-32-99-28z m-266-85c-24 25-28 62-28 86l127-114c-45-3-78 6-99 28z m179 240c31-48 40-86 28-109-15-28-57-32-74-33l-1 10c14 2 34 9 45 29 9 15 10 35 3 60-3 10-6 20-10 29z m-60 31c24-39 53-94 37-123-10-18-36-17-37-17l0 0c-21 0-34 6-40 17-14 29 18 90 40 123z m-92-141c-13 24-3 62 27 110l12-17c-15-36-18-65-8-85 8-17 24-27 48-30l1-10c-10 0-63 1-80 32z m-40-290c-39 29-51 82-55 115l175-130c-51-12-91-8-120 15z m314 83c-9-37-25-65-48-82-29-22-68-27-117-15l170 126c-1-10-3-19-5-29z"/>
<glyph glyph-name="fruit-tree" unicode="&#2690;" d="M470 325c-20 22-46 36-75 43 0 2 0 4 0 6 0 76-62 138-139 138-77 0-139-62-139-138 0-4 0-7 0-11-64-13-111-70-110-136 0-37 15-71 42-96 26-26 62-41 99-41l3 0c15 1 31 3 45 6l-6-79c-1-4 1-8 3-11 3-3 7-5 11-5l125-1 0 0c5 0 9 2 12 6 3 3 4 7 3 12l-21 81c12-2 24-4 36-4 40-1 77 14 105 41 27 26 42 61 41 98 0 34-13 66-35 91z m-252-297l6 79c13 7 25 16 34 27 10-11 22-19 35-25l21-82z m228 127c-23-22-54-34-86-33-44 1-73 14-90 41-3 4-8 7-13 7-5 0-10-3-13-8-16-29-48-44-93-45-31 0-61 11-84 33-21 20-33 48-33 77-1 57 41 104 98 111 4 1 8 3 11 6 2 3 3 8 2 12-1 6-1 12-1 18 0 61 50 111 112 111 62 0 112-50 112-111 0-5 0-10-1-14 0-4 1-8 3-12 3-3 6-5 10-5 56-7 98-54 98-109 1-30-11-58-32-79z m-288 130c-27 0-48-22-48-49 0-26 22-48 48-48 27 1 48 22 48 49 0 12-5 25-14 34-9 9-21 14-34 14z m0-76c-16 0-28 13-28 28 0 15 13 28 28 28 16 0 28-13 28-28 0-16-13-28-28-28z m192 76c-27 0-48-22-48-49 0-26 22-48 48-48 27 1 48 22 48 49 0 12-5 25-14 34-9 9-22 14-34 14z m0-76c-16 0-28 13-28 28 0 15 13 28 28 28 16 0 28-13 28-28 0-16-13-28-28-28z m-95 214c-26 0-48-22-48-48 1-27 22-48 49-48 26 0 48 21 48 48 0 27-22 48-49 48z m0-76c-15 0-28 13-27 28 0 16 12 28 28 28 15 0 28-13 28-28 0-16-13-28-29-28z"/>
<glyph glyph-name="full-moon" unicode="&#2596;" d="M499 157c-6 5-13 9-20 11 16 31 24 66 24 101 0 123-99 223-220 223-13 0-26-1-38-3l0 1-204 0 0-30 129 0c-10-6-18-12-27-19l-100 0c-24 0-43-20-43-44l0-6c0-21 16-43 53-44l25 0c-9-25-14-51-14-78 0-74 31-163 120-198 0 0-1-1-1-2l0-9c0-27 21-45 50-45l1 0 200 3-1 30-200-3c-7 0-20 2-20 15l0 9c0 8 6 14 14 14l244 0c23 0 41 19 41 41 0 13-5 24-13 33z m-446 220c-21 0-23 10-23 14l0 6c-1 4 1 7 3 10 3 3 7 4 10 4l71 0c-8-10-16-22-23-34z m142-278c-33 13-59 36-77 68-16 29-25 65-25 102 0 27 6 53 17 78l242-1 0 30-227 1c9 12 19 24 29 34l3 0 0 3c34 31 79 49 126 49 105 0 190-87 190-194 0-35-9-69-27-100l-116-1 0-29 95 1c-9-10-18-19-29-27l-169 0c-12 0-24-5-32-14z m276 14l-31 0c8 8 16 17 22 27l5 0c4 0 8-2 11-4 3-3 4-7 4-12 1-6-4-11-11-11z m-386 8l-12 0 0 14c0 4-4 8-8 8l-5 0c-4 0-7-4-7-8l0-14-12 0c-4 0-8-4-8-9l0-2c0-5 4-9 8-9l12 0 0-13c0-4 3-8 7-8l5 0c4 0 8 4 8 8l0 13 12 0c4 0 8 4 8 9l0 2c0 5-4 9-8 9z m360 334l12 0 0-13c0-4 3-8 7-8l5 0c4 0 8 4 8 8l0 13 12 0c4 0 8 4 8 9l0 2c0 5-4 9-8 9l-12 0 0 14c0 4-4 8-8 8l-5 0c-4 0-7-4-7-8l0-14-12 0c-4 0-8-4-8-9l0-2c0-5 4-9 8-9z m-249-169l-12 0 0 15c0 4-3 7-7 7l-5 0c-4 0-8-3-8-7l0-15-11 0c-5 0-9-3-9-8l0-3c0-4 4-8 9-8l11 0 0-14c0-4 4-7 8-7l5 0c4 0 7 3 7 7l0 14 12 0c5 0 9 4 9 8l0 3c0 5-4 8-9 8z m171-67l11 0 0-13c0-4 4-8 8-8l5 0c4 0 7 4 7 8l0 13 12 0c5 0 9 4 9 9l0 2c0 5-4 9-9 9l-12 0 0 14c0 4-3 8-7 8l-5 0c-4 0-8-4-8-8l0-14-11 0c-5 0-9-4-9-9l0-2c0-5 4-9 9-9z"/>
<glyph glyph-name="galleon" unicode="&#2658;" d="M484 288c-9 45-27 86-53 120l-21-16c23-30 40-68 47-109 12-57 6-113-17-159-22-45-56-74-97-82-41-8-84 6-121 39-38 34-65 84-76 141-22 110 24 214 103 238l35 5c16 0 32-4 47-10l10 25c-17 7-34 11-52 11l0 2-7-1c-9 0-18-1-27-3-4-1-8-2-12-3l-55-8 0 0c-108-21-167-131-142-262 27-133 108-216 212-216l3 0 73 13 0 1c5 0 9 1 14 2 49 10 91 44 116 96 25 51 32 114 20 176z m-305 160c-10-9-18-19-25-30l-28 1c15 14 33 23 53 29z m-89-73c3 6 7 12 12 18l37-1c-6-12-11-24-15-37l-45-5c3 8 7 16 11 25z m-19-53l47 5c-3-19-5-38-4-58l-46-10c-2 21 0 42 3 63z m1-100c0 3-1 7-1 11l44 9c1-8 3-17 4-26 2-6 3-12 5-18l-42-14c-4 12-7 25-10 38z m39-105c-8 13-15 27-20 42l41 13c5-14 11-28 18-41z m29-38c-5 5-9 10-13 15l37 14c8-13 19-26 30-37l-32-12c-8 6-15 13-22 20z m51-38l25 10c13-10 26-18 40-24-22 0-45 5-65 14z m185 361c-33 31-72 44-110 36-37-7-68-34-87-74-19-40-24-89-14-138 9-48 32-92 64-121 27-25 58-38 89-38 7 0 14 1 21 2 38 7 69 34 88 75 19 39 24 88 14 137-10 48-33 92-65 121z m-41-313c-31-6-64 5-92 31-29 26-50 66-59 110-8 45-4 89 13 125 16 35 42 57 73 63 6 2 12 2 17 2 60 0 118-60 134-143 18-91-20-175-86-188z m28 353l23 1 0-21c0-8 7-15 15-14l4 0c8 0 14 7 14 15l0 21 24 0c7 0 10 1 10 8l-1 9c0 7-3 18-10 18l-24-1-1 20c0 8-6 14-14 14l-4 0c-8 0-15-7-15-15l1-20-23 0c-7 0-13-6-12-13l0-9c0-7 6-13 13-13z m-274-395l-17 2 2 14c0 5-4 10-9 11l-3 0c-6 1-11-3-12-9l-1-14-16 2c-5 0-9-3-10-8l-1-7c0-5 3-9 8-10l17-1-2-15c-1-6 4-11 9-11l3-1c6 0 11 4 11 10l2 14 17-1c5-1 9 3 10 8l0 6c1 5-3 9-8 10z m222 181l40 17c3-18 2-36-2-51-5-16-13-26-23-29-9-2-22 4-33 16-13 14-24 35-30 58-11 45-1 90 22 95l0 0 1 1c0 0 10 3 19-1 7-4 12-13 16-27l26 6c-5 22-15 37-30 44-18 10-35 5-40 3-38-10-55-66-40-127 7-28 20-54 37-71 15-16 31-24 47-24 4 0 8 1 12 1 19 5 34 22 42 48 6 23 6 52-1 80l-4 15-70-29z"/>
<glyph glyph-name="galleon-s" unicode="&#2660;" d="M475 288c-9 45-27 86-53 120l-21-16c23-31 39-68 47-109 23-116-28-224-114-241-8-1-15-2-23-2-78 0-154 76-174 182-11 56-5 113 17 159 20 40 50 68 86 79l35 5c16 0 32-4 47-10l10 25c-17 7-34 11-52 11l0 1-7 0c-9-1-18-1-27-3-4-1-8-2-12-3l-55-8 0 0c-53-10-96-43-122-91-25-47-32-108-20-171 27-133 108-216 212-216l3 0 73 13 0 1c5 0 9 1 14 2 49 10 91 44 116 96 25 51 32 114 20 176z m-344-209c-33 34-56 83-68 143-11 56-4 111 18 152 19 37 50 63 88 74-16-16-29-35-39-55-25-51-32-114-20-176 13-63 43-118 85-156 16-14 33-26 52-34-44 0-84 18-116 52z m223 363l23 1 0-21c0-8 7-15 15-14l4 0c8 0 14 6 14 14l0 22 24 0c7 0 10 1 10 8l-1 9c0 7-3 18-10 18l-24-1-1 20c0 8-7 14-14 14l-4 0c-8 0-15-7-15-15l1-20-23 0c-7-1-13-6-12-13l0-9c0-7 6-13 13-13z m-78-100l1 0 1 1c0 0 9 3 18-1 7-4 13-13 16-27l26 6c-5 22-15 37-30 44-17 10-35 5-39 3-38-10-56-66-41-127 7-28 20-53 37-71 15-16 32-24 48-24 4 0 8 1 11 2 20 4 35 21 42 47 7 23 6 52-1 80l-4 15-69-29 10-25 40 17c3-18 2-36-2-51-4-15-12-26-22-28-10-3-22 3-34 15-13 14-24 35-30 58-11 45-1 90 22 95z"/>
<glyph glyph-name="heart-1" unicode="&#2710;" d="M464 152l-61 34-34 63c-3 6-9 9-15 9-6 0-11-4-14-9l-32-64-60-36c-5-3-8-8-8-14 0-6 3-11 8-14l61-34 34-63c3-5 9-9 15-9l0 0c6 1 11 4 14 9l32 65 60 35c5 3 8 9 8 14 0 6-3 12-8 14z m-76-43c-2-1-4-4-6-6l-25-50-26 49c-2 3-4 5-7 6l-49 27 49 29c2 2 4 4 6 7l25 50 26-49c2-3 4-5 7-7l49-27z m-246 285l-17 32c-2 4-6 6-11 6-4 0-8-2-9-6l-17-32-30-18c-4-3-6-6-6-10 0-4 2-8 6-10l31-17 17-32c2-4 6-6 10-6l0 0c5 0 8 2 10 6l17 32 30 19c4 2 6 5 6 9 0 5-3 8-6 10z m-11-39c-2-1-4-3-5-5l-10-21-11 21c-1 2-3 3-5 4l-20 12 20 12c2 1 3 3 4 5l11 21 11-21c1-2 2-3 4-4l21-12z m142-268c-5-4-9-7-11-8 0 0 0 0-1 0l0-1c-3-1-6-2-8-1-1 0-1 0-1 1l-1 0 0 0c-1 1-111 81-152 124-68 70-76 136-70 179 7 50 66 88 114 88 25 1 48-4 65-13 17-8 28-21 33-37 2-6 8-10 15-9 7-1 13 3 15 9 5 16 16 29 33 37 17 9 40 14 65 13 48 0 107-38 114-88 5-41-1-104-63-172-5-6-5-14 1-19 5-5 14-5 19 0 69 76 76 148 70 194-4 30-22 59-51 80-27 20-60 32-90 33-29 0-56-6-77-16-15-8-27-18-36-31-9 13-21 23-36 31-21 10-48 16-77 16-30-1-63-13-90-33-29-21-47-50-51-80-7-48 1-123 77-201 42-43 146-120 155-126 3-3 6-4 10-6 4-1 8-1 11-1 7 0 14 1 20 5l0 0c1 1 2 1 3 2 2 1 6 4 12 9 6 4 7 13 2 19-4 6-13 7-19 2z"/>
<glyph glyph-name="heart-2" unicode="&#2711;" d="M511 239c-2 14-9 28-18 39 0 0 0 1 0 1 10 30 12 61 7 99-8 68-77 116-136 118-27 0-55-9-78-28-14-11-26-25-35-40-8 15-20 29-34 40-24 19-52 28-79 28-58-2-127-50-136-118-4-37-2-68 7-97 10-34 31-67 63-100l154-154c5-5 12-8 19-10 1 0 3-1 5-1l3 0c2 0 3 1 5 1 7 2 13 5 19 10l25 26 17 16 29-30c4-3 9-5 13-6 2-1 3-1 5-1l0 0c0 0 0 0 1 0 0 0 0 0 0 0l1 0c1 0 2 0 4 1 5 1 9 3 13 6l85 86 1 0c42 44 44 82 40 114z m-227-168l-26-26c-2-1-4-2-7-3-2 1-5 2-7 3l-154 154c-28 30-47 59-56 89-8 26-10 53-6 87 3 24 17 48 40 66 21 18 47 28 71 29 21 0 43-7 62-22 18-15 31-34 36-55 2-7 8-11 14-10 7-1 13 3 14 10 5 21 18 40 37 55 19 15 41 22 61 22 25-1 51-11 72-28 22-19 36-43 39-67 4-30 3-55-3-79-13 8-28 13-42 14-24 0-48-13-62-33-14 20-38 33-61 33l-2 0c-35-1-76-30-81-71-4-32-3-70 40-114l37-38z m168 72l-85-85-86 85c-32 34-36 62-32 93 3 27 32 47 56 48 21 0 43-17 48-39 2-6 7-10 14-10 6 0 11 4 13 10 5 22 27 39 49 39 29-1 53-26 56-48 4-31 0-59-33-93z m-296 233l-20 11c0 1-1 1-2 2l-10 21c-1 2-3 3-5 3-2 0-4-1-5-3l-10-21c-1-1-2-2-2-2l-19-12c-2-1-3-3-3-5 0-2 1-4 3-5l19-11c1-1 1-2 2-3l11-20c0-2 2-3 4-3 2 0 4 1 5 3l10 21c1 0 2 1 3 2l19 11c1 1 3 3 3 6-1 2-2 4-3 5z"/>
<glyph glyph-name="heart-3" unicode="&#2712;" d="M510 373c-9 67-79 113-139 114-45 2-91-24-115-61-24 37-70 63-115 61-60-1-130-47-139-114-4-36-2-66 7-94 11-33 32-64 64-96l157-148c6-5 12-8 20-10 1 0 3 0 4 0 1 0 1 0 2 0 1 0 1 0 2 0l0 0c1 0 3 0 4 0 8 2 14 5 20 10l157 148 0 0c32 32 53 63 64 96 9 28 11 58 7 94z m-32-85c-10-29-29-57-58-86l-157-148c-2-1-4-2-7-3-3 1-5 2-7 3l-157 148c-29 29-48 57-58 86-8 24-9 50-5 82 7 52 65 89 113 91 36 1 76-22 94-53 3-7 10-10 17-10l6 0c7 0 14 3 17 10 18 31 56 53 92 53l2 0c48-2 106-39 113-91 4-32 3-58-5-82z m-95 75c-17 13-38 20-57 20-28 1-55-13-70-34-16 21-42 34-68 34l-3 0c-19 0-40-7-57-20-18-14-30-32-32-52-7-46 7-81 45-117l96-87c3-3 8-6 12-7 2 0 4-1 5-1l0 0c1 0 1 0 2 0l1 0c2 0 4 1 5 1 5 1 9 4 12 7l96 87 1 0c37 36 51 71 45 117-3 20-15 38-33 52z m-31-149l-96-88c0 0 0 0 0 0-1 0-1 0-1 1l-96 87c-37 34-41 62-37 94 3 22 30 48 64 49 25 1 50-18 56-40 2-6 7-10 14-10 6 0 11 4 13 10 6 22 31 41 56 40 34-1 61-27 64-49 4-32 0-60-37-94z m-63 85c-16 1-32-11-35-25-4 14-20 26-36 25-17 0-36-13-39-30-2-18 1-35 21-54l48-44c2-1 3-2 5-2l0 0 1 0 0 0c2 0 3 1 4 2l49 44c20 19 23 36 20 54-2 17-21 30-38 30z"/>
<glyph glyph-name="house-1" unicode="&#2681;" d="M476 252l-60 39 0 93c0 8-7 15-16 15l-62 0c-9 0-16-7-16-15l0-31-65 43c-5 3-13 3-18 0l-206-142c-5-4-7-11-5-17 2-6 8-11 15-11l52 0 31-213c2-7 8-13 16-13l251 0c8 0 15 6 16 14l19 212 39-2c7 0 13 4 15 11 2 6 0 13-6 17z m-86 121l0-64-42 27 0 37z m14-120l-20-227-233 0-33 226-41 0 171 118 76-50 72-46 0-1 33-21z m-83-34l-114 4 0 0c-10 0-19-8-19-17l4-104c0-9 9-17 19-17l0 0 110 6c10 0 18 7 18 17l0 95c0 9-8 16-18 16z m-2-59l-47 0 0 41 47-1z m-66 42l0-42-43 0-2 43z m-43-55l43 0 0-40-41-2z m62-39l0 39 47 0 0-36z m107 300c5 0 10 1 14 2 13 3 24 12 29 24 3 1 7 1 11 2 19 3 38 14 47 28 4 7 6 15 5 22-5 19-32 30-63 24-19-3-35-12-43-24-3-4-5-10-5-15 0 0 0-1-1-1-13-3-25-11-30-21-3-6-4-13-2-20 5-13 20-21 38-21z m-19 32c2 4 8 9 19 11 2 1 4 2 7 4l1 1c5 1 8 5 8 10 0 1 0 1-1 2 0 1 0 1 0 1 0 3 0 5 2 6 3 6 13 13 30 16 22 4 38-3 39-10 1-1 0-3-2-6-5-8-18-17-34-20-3-1-6-1-9-1-1 0-2 0-3-1-1 0-1 1-2 1-2 0-5-1-7-2-2-2-3-4-4-7 0-6-5-13-15-16-15-3-27 2-29 7-1 1 0 3 0 4z"/>
<glyph glyph-name="house-2" unicode="&#2688;" d="M505 319l-69 51 0 120c0 9-7 16-16 15l-71 0c-8 1-16-6-16-15l0-44-75 56c-6 4-14 4-20-1l-232-180c-5-4-7-11-5-17 2-6 8-11 15-11l61 0 35-273c2-8 8-14 16-13l284 0c8-1 15 6 16 14l22 272 45-2c7-1 14 4 16 10 2 7 0 14-6 18z m-146 160l51 0 0-90-51 38c0 0 0 1 0 1z m67-159l-23-287-266 0-37 286-54 0 202 157 86-63 81-60 48-35z m-96-42l-128 5 0 0c-11 0-20-9-20-19l4-132c1-10 9-18 20-18l0 0 124 7c11 0 20 8 20 18l0 121c0 10-9 18-20 18z m0-19l0-55-56 0 0 57 56-2z m-75 2l0-57-51 0-2 59z m-49-128l-2 58 51 0 0-55z m124 7l0 0-56-3 0 54 56 0 0-51z"/>
<glyph glyph-name="inkwell" unicode="&#2609;" d="M512 411c-57 33-115 46-172 40-45-4-89-21-131-50-46-31-78-69-97-94-1-1-2-2-2-3l0 0c-9-12-14-21-16-23l0 0-36 0 0-59-36 0-22-163 212 0-16 163-40 0 0 59-28 0c2 2 3 4 5 7 8 6 26 8 38 7 40-10 78-15 113-15 16 0 32 1 48 4 40 5 75 19 105 39 42 29 63 64 71 80z m-331-324l-149 0 15 106 123 0z m-95 135l0 30 42 0 0-30z m139 155c38 27 78 42 118 46 32 4 64 0 96-10-27-5-64-12-102-20-58-12-105-24-139-36 8 7 17 14 27 20z m196-30c-27-18-58-30-93-35-42-7-91-3-144 9 66 29 204 55 281 67-12-16-27-30-44-42z m-339-237c8-2 17-4 25-4 18 0 38 6 59 24l-19 21c-17-15-36-20-56-14-10 3-19 7-27 14l-9-11-10-10c11-9 24-16 37-20z"/>
<glyph glyph-name="juicebox" unicode="&#41216;" d="M445 368c-2 2-4 3-6 4l-123 35 6 79 111-33 7 22-123 36c-3 2-7 1-10-1-4-2-6-6-7-10l-7-89-218-3c-4 0-8-2-10-5-2-3-3-7-2-11l2-311c0-9 2-14 7-17l99-62 0 0c2-1 5-2 7-2l258 1c7 0 14 7 14 14l0 343c0 4-2 8-5 10z m-95 3l-37 0 1 11z m-59 15l-2-15-109 0-37 13z m-126-35l-42-52-34 78 76-26z m-77-19l21-51c2-4 6-7 10-8 1 0 1 0 2 0 4 0 8 2 10 5l34 42 0-285-76 47z m337-306l-236-1 0 322 236 0z m-150 47c2-1 5-2 7-3 9-3 19-4 29-4 39 0 76 24 89 61 8 22 6 45-3 66-9 18-24 34-42 43 6 9 12 14 16 15 0 0 1 0 3-2l14 13c-7 8-15 9-20 8-8-1-16-7-22-14-12 20-46 32-103 36l-11 1 0-11c1-2 3-32 28-51-18-11-31-27-37-47-8-21-7-45 3-66 10-20 27-37 49-45z m55 172c1-2 2-5 1-8-25-4-45-2-59 9-10 7-15 18-18 26 60-6 73-21 76-27z m-89-67c7 19 21 34 39 42 10-3 20-5 30-4 10 0 20 1 30 3l3 1c34-16 51-52 39-86-13-38-55-58-94-45-2 0-4 1-6 2l-4-9 4 9c-17 7-31 19-38 36-8 16-9 34-3 51z"/>
<glyph glyph-name="keychain" unicode="&#2578;" d="M334 280c0 20-9 39-24 53 2 10 3 21 3 31 0 82-69 148-153 148-85 0-154-66-154-148 0-81 69-148 154-148 1 0 3 0 5 1 0-1-1-3-1-4-7-11-20-18-34-17-13 0-25 9-30 21l-22-9c9-21 31-35 54-36l73-172 29 12-71 169c14 8 24 22 27 39 49 9 89 40 109 82 10-16 8-36-4-50-12-15-32-19-50-12l-11-26c18-7 39-7 57 0l142-188 30 23-143 190c9 12 14 26 14 41z m-146-28c-5 13-14 24-26 30-17 10-37 11-54 3l9-21c11 5 23 4 33-2 6-3 11-8 14-13-2 0-3 0-4 0-67 0-122 52-122 115 0 64 55 116 122 116 67 0 121-52 121-116 0-5 0-10-1-15-21 5-44 1-61-13-18-13-28-34-28-56l28 0c0 13 6 26 17 34 10 8 24 11 37 8-15-35-46-61-85-70z m318-165l0 0c-1 5-4 8-8 9l-27 8c-2 1-3 3-3 5l7 32c1 5-1 11-6 14-4 4-10 5-15 2l-1 0-40-29 11-16 30 23-4-23c-2-11 4-22 15-25l14-5-21-16 11-15 33 26c3 2 5 6 4 10z m-292-7l9-24 38 15-9 24z m15-37l9-24 38 16-9 24z"/>
<glyph glyph-name="leaf" unicode="&#2628;" d="M377 374c-34 46-72 89-112 129l-10 9-9-9c-41-40-78-83-112-129-72-99-97-176-75-230 10-26 32-46 63-59 30-13 71-20 121-21l0-64 27 0 0 64c50 1 90 8 120 21 31 13 53 33 63 59 22 54-4 132-76 230z m-247-55c31 7 59-1 83-21 12-10 22-22 30-35l0-50c-8 8-17 17-27 24-36 29-74 42-111 39 7 14 15 28 25 43z m278-45c-38 4-77-9-113-38-9-7-17-14-25-22l0 45c8 13 18 25 30 35 25 21 53 29 83 23 10-15 18-29 25-43z m-316-27c35 7 71-3 107-31 16-13 31-28 44-46l0-48c-12 12-25 23-38 33-43 32-86 48-126 46 3 16 7 31 13 46z m178-75c14 19 75 91 151 73l0 0c5-13 9-27 11-41-69 0-132-52-162-82z m94 174c-30 0-58-10-82-31-4-4-8-7-12-11l0 67c10 8 34 26 57 23 9-11 19-23 28-36 3-4 6-8 9-12z m-109 128c11-11 29-30 50-54-10-3-20-7-30-12-7-4-13-8-19-13-6 4-12 8-18 11-10 6-21 11-33 13 21 25 40 44 50 55z m-72-82c24 5 50-14 60-22l0-63c-3 4-7 7-11 11-25 21-53 31-82 31 2 3 4 6 6 8 9 13 18 24 27 35z m-99-238c-3 7-4 13-5 20 68 3 133-58 157-83-85 3-136 24-152 63z m195-63c21 23 86 86 154 86 0-8-2-15-5-22-15-39-66-60-149-64z"/>
<glyph glyph-name="lightning" unicode="&#2577;" d="M435 301c-4 7-12 12-20 11l-136-7 122 175c5 6 5 14 2 21-4 7-11 11-18 11l-123-1c-11 0-21-6-26-15l-158-279c-5-9-4-20 1-28 5-9 14-14 24-13l132 2-41-152c-3-9 2-20 11-24 3-1 6-2 9-2 6 0 13 3 16 8l203 270c5 7 6 16 2 23z m-196-229l30 113c2 6 0 12-3 17-4 5-10 8-16 8l-1 0-140-3 154 273 100 0-123-176c-4-7-5-15-1-22 4-6 11-10 19-10l136 7z"/>
<glyph glyph-name="lion" unicode="&#162;" d="M345 385c0 6-5 11-12 11-7 0-12-5-12-11 0-7 5-12 12-12 7 0 12 5 12 12z m65-113l-18-20c16-13 30-28 42-43 32-41 34-71 30-88-7-33-40-60-100-81 23 20 35 42 37 65 6 72-93 138-173 191-35 24-76 51-83 65 1 13 3 89 52 116 37 19 95 7 168-36l-16-27 95-71-13 0c-6 0-11-4-13-10-1-5 0-10 4-14l17-14-3-7-97-2-15-3-1 0 4 25 0 1c-1 6-4 11-10 13-5 3-12 3-17 0l-11-5 4 16c1 4 0 9-3 13-4 3-9 5-14 5l-28-2 2 5 37 44-35 22c2 2 7 6 13 8 10 3 18 3 22 0 2-1 3-2 4-3l-8-15 25-12 12 24-1 4c-2 10-8 18-16 24-12 7-28 8-47 3l-1-1c-4-1-24-10-29-25-2-6-3-14 4-23l1-2 16-10-21-24-5-13c-4-7-3-15 2-22 5-7 14-11 24-10l16 1-3-11c-2-8 2-16 9-21 7-5 18-6 26-2l2 1-2-11 0-2c1-8 7-15 16-19 8-4 17-4 23-1l8 2 111 3 34 71-103 77 17 29-10 7c-89 54-159 68-207 42-25-13-44-38-55-71-35-19-57-40-64-63-35-38-50-74-45-108 5-43 41-65 43-66l1-1c91-44 142-90 169-121 30-33 37-56 37-56l1 0c1-2 2-4 4-5 4-5 11-8 17-8 3 0 6 0 8 1l50 7 1 1c83 24 130 60 140 107 17 77-77 152-81 156z m35 50l-7 5 8 0z m-161-275c-22 36-77 103-207 166-4 2-26 18-30 47-3 20 4 41 20 64 16-42 69-72 74-75 89-52 141-105 150-152 4-17 1-35-7-50z m24-12c11 20 15 44 10 67-11 55-66 112-163 169l-1 1c-17 9-64 42-64 75 0 16 11 31 31 45-2-11-3-23-3-34l0-2 1-1c6-22 38-44 94-81 70-46 165-110 161-167-2-25-24-50-66-72z"/>
<glyph glyph-name="lion-flipped" unicode="&#2656;" d="M191 385c0 6-5 11-12 11-7 0-12-5-12-11 0-7 5-12 12-12 7 0 12 5 12 12z m-170-269c10-47 57-83 140-107l1-1 50-7c2-1 5-1 8-1 6 0 13 3 17 8 2 1 3 3 4 5l1 0c0 0 7 23 37 56 27 31 78 77 169 121l1 1c2 1 37 23 43 66 5 34-10 70-45 108-7 23-29 44-64 63-11 33-30 58-55 71-48 26-118 12-206-42l-11-7 17-29-103-77 34-71 111-3 8-2c6-3 15-3 23 1 9 4 15 11 16 19l0 1-2 12 2-1c9-4 19-4 26 2 7 5 11 13 9 21l-3 11 16-1c10-1 19 3 24 10 5 7 6 15 2 22l-5 13-21 24 16 10 1 2c7 9 6 17 4 23-5 15-25 24-29 25l-1 1c-19 5-35 4-46-3-9-6-15-14-17-24l-1-4 12-24 25 12-8 15c1 1 2 2 4 3 4 3 12 3 22 0 6-2 11-6 13-8l-35-22 37-44 2-5-28 2c-5 0-10-2-14-6-3-3-4-8-3-13l4-15-11 5c-5 3-12 3-17 0-6-2-9-7-10-13l0-2 4-25-1 1-15 3-97 2-3 7 17 14c4 3 5 9 4 14-1 6-7 10-13 10l-13 0 95 71-16 27c73 43 131 55 168 36 49-27 51-103 51-116-6-14-47-41-83-65-79-53-178-119-172-191 2-23 14-45 37-65-60 21-93 48-100 81-4 17-2 47 30 88 12 15 26 30 42 42l-18 21c-4-4-98-79-81-156z m45 211l8 0-6-6z m155-230c9 47 61 100 150 152 5 3 58 33 74 75 16-23 23-44 20-64-4-29-26-45-30-47-130-63-185-130-207-166-8 15-11 33-7 50z m-83 10c-4 57 91 121 161 167 56 37 88 59 94 81l1 1 0 2c0 11-1 23-3 34 21-14 31-29 31-45 0-33-46-66-64-75l-1-1c-97-57-152-114-163-169-5-23-1-47 10-67-42 22-64 47-66 72z"/>
<glyph glyph-name="love-potion" unicode="&#2612;" d="M484 299c-6 58-72 99-126 99-1 0-3 0-4 0 1 2 1 4 1 6l0 15 25 0c14 0 26 12 26 27l0 40c0 14-12 26-26 26l-249 0c-15 0-26-12-26-26l0-40c0-15 11-27 26-27l22 0 0-15c0-2 0-4 0-6-54 0-119-41-125-99-4-45-1-103 64-165l140-125c7-6 15-9 24-9 9 0 17 3 24 9l140 125 0 0c65 62 68 120 64 165z m-351 184l245 0 0-35-245 0z m159-105c-4-3-8-7-12-10-10-8-18-18-24-29-6 11-14 21-24 29-4 3-8 7-12 10z m-111 28l0 12 145 0 0-12z m219-251l-139-124c-3-3-7-3-10 0l-139 124c-56 53-60 101-55 141 2 19 14 37 33 52 19 13 43 22 64 22 21 0 43-9 59-24 18-14 27-33 27-53l32 0c0 20 10 39 27 53 16 15 38 24 59 24 21 0 45-9 64-22 19-15 31-33 33-52 5-40 1-88-55-141z m-138 92l-37 20-20 36c-3 5-8 8-14 8l0 0c-5 0-10-3-13-8l-19-37-37-21c-4-2-7-7-7-13 0-5 3-10 8-13l37-20 20-36c3-5 8-7 13-7l1 0c5 0 10 3 13 8l19 37 36 20c5 3 8 8 8 13 0 6-3 11-8 13z m-59-71z m7 46c-2-2-4-4-5-6l-12-22-12 21c-2 3-4 5-6 6l-22 12 21 12c3 1 5 3 6 6l12 22 12-22c1-2 3-4 6-6l22-11z m165-30l-25 13-14 24c-3 5-7 8-13 8-5 0-10-3-12-8l-13-25-25-14c-4-2-7-7-7-12 0-6 3-10 8-13l24-13 14-24c3-5 8-8 13-8l0 0c5 0 10 3 13 8l13 25 24 14c5 2 8 7 7 12 0 6-3 10-7 13z m-40-18c-3-2-5-4-6-6l-5-9-5 9c-1 2-3 4-5 5l-9 5 8 5c3 2 5 4 6 6l5 9 5-9c1-2 3-4 6-5l9-5z"/>
<glyph glyph-name="magic-eye" unicode="&#163;" d="M258 392c-73 0-133-59-133-132 0-74 60-133 133-133 72 0 132 60 132 133 0 73-60 132-132 132z m0-239c-59 0-107 48-107 107 0 58 48 106 107 106 58 0 106-48 106-106 0-59-48-107-106-107z m246 127c-15 20-48 58-91 91-53 41-105 61-156 61-122 0-223-120-251-157-8-11-8-27 0-38 28-37 129-157 251-157 51 0 103 20 156 61 43 33 76 71 91 91 11 14 11 34 0 48z m-20-32c-15-19-46-56-87-87-48-37-95-55-140-55-110 0-204 112-231 147-1 2-1 4 0 6 27 35 121 147 231 147 45 0 92-18 140-55 41-32 72-68 87-87 3-4 3-12 0-16z m-193 55l-17 37c-3 6-9 9-16 10l0 0c-6 0-12-4-15-10l-18-36-41-6c-6-1-12-5-14-11-2-7 0-13 4-18l29-29-7-40c-1-6 1-13 7-17 5-4 12-4 18-1l36 18 35-19c6-3 13-3 19 1 5 4 8 10 7 17l-7 40 30 28c4 5 6 12 4 18-2 6-7 11-14 12z m-1-48c-4-4-6-10-5-16l4-27-24 13c-5 3-11 3-16 0l-25-12 5 27c1 6 0 11-4 15l-20 20 27 4c6 0 11 4 14 9l12 25 12-25c2-5 7-9 13-10l27-4z"/>
<glyph glyph-name="mailbox" unicode="&#2601;" d="M498 461l-64 44 0 0c-8 7-19 9-28 5-10-4-16-14-16-24l0-108c-2 0-3 1-5 1l-327 0c-16 0-30-11-34-26l-22-68 0-1c-2-9 0-17 5-24 5-7 13-11 22-11l349 0 0-212c0-4-3-6-6-6l-305 0c-4 0-6 2-6 6l0 212-31 0 0-212c0-21 16-37 37-37l305 0c20 0 36 16 36 37l0 214c16 4 25 19 22 35l-10 43 1 64 45-27c9-5 21-5 30 0 9 5 15 15 15 25l0 46c0 9-5 18-13 24z m-444-117l0 1c0 2 2 3 4 3l326 0 16-68-367 0z m426 49l-59 36 0 48 59-41z m-120-162l-276 0 0-27 41 0 5-85c2-15 14-27 29-27l131 0c16 0 28 12 29 28l4 81c0 1 0 2 0 3l37 0z m-67-110c0-2-1-3-3-3l-131 0c-1 0-3 1-3 3l-4 64 75-44 69 43z m-67 50l-56 33 110 0z"/>
<glyph glyph-name="mirror" unicode="&#2576;" d="M418 488l-31 0 0-77c-46 62-126 99-131 101l0-1c-7-3-86-39-131-100l0 78-31 0 0-161c0 0 0-1 0-2l0-325 168 0 156-1 0 325c0 1 0 2 0 3l0 0z m-37-129l-39 0 0 57c16-16 30-35 39-57z m-183 81c14 10 28 20 42 28l0-109-40 0 0 81z m64 34l-11 0c2 1 4 2 6 3 1-1 3-2 5-3z m9-5c14-8 27-17 40-26l0-84-40 0z m-102-55l0-55-38 0c8 21 22 40 38 55z m218-89l0-294-125 1-137 0 0 294c0 1 0 2 0 2l262 0c0-1 0-2 0-3z m-227-117l35-17 21-33c2-4 7-7 12-7l1 0c6 1 10 4 13 9l16 35 33 21c5 2 7 8 7 13 0 5-4 10-8 12l-36 17-21 33c-3 4-8 7-13 7-5-1-10-4-12-9l-17-35-33-21c-5-2-7-8-7-13 0-5 4-10 9-12z m48 26c2 2 4 4 5 6l9 20 12-18c1-3 4-5 6-6l20-9-19-12c-2-1-4-4-5-6l-9-20-12 19c-1 2-4 4-6 5l-20 9z m53-94c-4-2-6-6-7-10 0-4 2-7 5-10l25-16 11-28c2-3 6-6 10-6 0 0 0 0 1 0 3 0 7 1 9 4l17 25 27 11c4 2 6 5 7 9 0 4-2 8-5 11l-25 16-11 28c-2 3-6 6-10 6-4 1-8-1-10-5l-17-24z m42-2l10 14 6-15c1-2 3-4 4-5l14-10-15-6c-2-1-4-3-5-4l-10-14-6 15c-1 2-3 4-4 5l-14 10 15 6c2 1 4 2 5 4z"/>
<glyph glyph-name="money-bag" unicode="&#2691;" d="M478 188c-5 28-17 57-33 84 6 10 5 22 2 31-3 6-10 18-19 22l-85 53c5 3 10 6 15 9 16 9 26 25 26 42-1 18-11 33-28 41-10 5-22 7-32 4-5-2-10 0-14 3-11 12-27 21-39 27-13 6-27 9-41 8-31-2-51-13-60-32-15-32 6-76 19-98-39-21-68-42-92-65-34-33-54-70-62-113-12-61-3-109 26-144 21-24 53-42 94-51 26-6 56-9 91-9 4 0 8 0 12 0 73 1 154 7 197 59 25 31 33 74 23 129z m-59 120c3-2 8-8 9-12 2-5 3-11-1-15-4-5-15-7-29-5-4 19-18 41-41 65-5 5-10 10-14 14l75-47z m-77 20c24-25 37-46 37-60l1 0c-1-4-4-12-12-16-7-4-16-3-27 1-3 2-9 12-11 21l-17 81c10-8 20-17 29-27z m-148 141c4 10 17 16 38 17 9 0 19-2 28-6 9-5 23-12 32-21 10-11 25-15 39-10 4 1 9 0 14-2 7-4 12-11 12-18 0-8-4-15-12-19-15-9-31-21-39-27l-91 6c-11 19-32 59-21 80z m240-393c-35-44-110-49-177-50-88-1-146 15-176 51-23 28-30 69-21 122 16 84 87 132 150 164l82-5 18-88 0-1c2-7 11-29 24-34 7-3 16-5 24-5 7 0 14 1 19 4 11 6 17 16 20 23 10-2 19-1 26 0 15-24 25-49 29-74 9-46 3-83-18-107z m-181 128l-37 8-13 31c-2 5-8 9-14 10-7 1-13-2-17-7l-21-27-38-1c-7 0-14-4-17-11-2-5-1-12 4-17l23-24-10-30c-2-6 0-12 4-16 5-5 13-7 19-5l37 12 32-19c6-3 13-3 19 1 6 3 9 9 8 15l-2 31 29 19c6 3 9 10 8 16-2 7-7 13-14 14z m-35-34c-5-3-8-9-8-15l2-28-30 17c-3 2-6 3-9 3-2 0-4-1-6-1l-34-11 10 27c1 5 0 12-4 16l-20 21 33 0c6 0 11 3 14 7l20 27 13-29c2-6 7-9 12-11l31-7z"/>
<glyph glyph-name="moon" unicode="&#2597;" d="M501 255c-3 2-13 6-25-1-20-12-52-19-82-18-54 1-104 32-128 81-24 49-19 107 13 151 6 8 7 20 2 29-4 9-14 15-24 15l0 0c-142 0-256-115-256-256 0-136 106-248 242-256 135-7 253 93 268 228 1 12-2 22-10 27z m-93-167c-74-67-184-77-270-24-85 52-126 155-99 251 26 97 113 165 213 167-49-70-40-165 21-225 32-32 75-50 121-51 31-1 62 5 86 16-8-51-33-99-72-134z m-13 242l19 0 0-22c0-7 5-12 12-12l9 0c7 0 12 5 12 12l0 22 21 0c8 0 14 7 14 15l0 3c0 8-6 15-14 15l-21 0 0 23c0 7-5 13-12 13l-9 0c-7 0-12-6-12-13l0-23-19 0c-8 0-15-7-15-14l0-4c0-8 7-15 15-15z m-92 66l17 0 0-19c0-6 5-11 11-11l7 0c6 0 11 5 11 11l0 19 18 0c7 0 13 6 13 13l0 3c0 7-6 13-13 13l-18 0 0 20c0 6-5 11-10 11l-8 0c-6 0-11-5-11-11l0-20-17 0c-7 0-12-6-12-13l0-3c0-7 5-12 12-13z"/>
<glyph glyph-name="mushroom" unicode="&#2645;" d="M509 282c-9 63-39 121-85 163-45 41-102 65-161 66-1 1-1 1-1 1l-1-1c-2 0-3 0-5 0-6 0-11 0-17 0-58-4-114-29-157-71-1-2-2-3-3-4l-1 0 0 0c-40-41-67-96-75-154-3-16 2-32 11-43 7-8 17-13 27-13l156 0-30-172c-3-14 1-27 10-38 8-10 21-16 34-16l89 0c13 0 25 6 33 16 9 10 13 23 11 37l-26 173 153 0c10 0 20 5 27 13 9 11 14 27 11 43z m-47 64c-8-24-25-40-44-40-13 0-25 7-34 20-10 13-16 31-16 51 0 24 9 47 24 60 4-4 9-8 13-12 24-22 44-49 57-79z m-221 138c1 0 2 0 3 0 4-5 7-11 9-17 6-19 5-41-5-63-9-22-25-41-46-53-21-13-43-16-61-9-14 5-25 16-30 32-1 2-1 4-2 6 1 2 2 3 2 4l-2 2c-2 13-2 30 0 42 38 32 84 52 132 56z m79-435c1-6 0-13-5-18-4-4-9-7-15-7l-89 0c-6 0-12 3-16 7-4 6-6 12-5 19l32 176 72 0z m157 208c-1-2-3-3-6-3l-430 0c-3 0-5 1-6 3-4 4-7 11-5 21 6 41 21 79 46 113 0-9 2-18 5-27 8-25 26-44 49-52 10-4 20-6 31-6 19 0 39 6 57 17 27 16 48 40 60 68 12 30 14 60 6 86-1 2-2 4-2 6 30-4 60-14 87-30-18-19-28-46-28-76 0-25 8-50 21-68 15-19 35-30 56-30 22 0 43 12 57 33 3-11 6-22 7-34 2-8 0-16-5-21z"/>
<glyph glyph-name="nimbus" unicode="&#2613;" d="M512 35l-10 88c-2 12-9 24-20 29l-116 57c1 6 0 11-3 16l-26 45c-4 7-10 12-18 12-6 1-13-1-17-5l-24 28-45 5c-7 1-14 7-17 14l-40 99c-13 51-46 57-60 60-1 0-2 1-3 1l-83 20c-7 1-14 0-20-5-6-5-10-12-10-21l0-65c0-14 10-26 24-28l74-9c5-1 10-4 13-9l64-113 1 0c5-9 15-14 25-14l32 0-84-64-1 0-1-1c-9-10-10-23-4-34l24-47 23 12-24 47c0 0 0 0 0 1l38-15c0 0 0 0 0 0 1-7 5-13 11-17l37-26 15 22-37 25c0 0 0 1 0 1l31 39c0 0 0 0 1-1l42-25c5-3 10-4 15-3l2-41c1-13 9-25 20-30l137-73c8-4 17-3 24 2 7 5 11 14 10 23z m-172 177l-20-25 16 32z m-20 35l-26-53-14 8 18 29 18 22z m-122 21l-64 113-1 1c-7 11-19 18-32 20l-74 9c0 1-1 2-1 2l0 64 80-19c2 0 4-1 5-1 13-2 31-6 40-42l0-1 40-100 1 0c7-16 20-27 37-30l36-4 19-23-7-11-4-4-9 24-63 0c-2 0-3 1-3 2z m15-104l-25 9 64 49 2-4z m135-49l-4 60 9 11 117-57c3-2 5-5 5-9l9-73-48 77-18-11 38-61-15 8-58 72-21-17 20-25-29 16c-3 2-5 5-5 9z"/>
<glyph glyph-name="open-book" unicode="&#2646;" d="M488 98c14 5 22 17 23 31l1 296c0 8-4 17-10 23-6 6-14 9-23 9l-10 0 0 5c0 8-4 13-13 17l-1 0c-29 11-58 13-85 7-44-9-81-39-110-89-13 18-28 35-45 50-50 41-105 52-160 30-7-3-12-10-12-18l0-2-10 0c-18 0-33-14-33-32l0-295c0-14 9-26 23-30l230-76c2-1 5-1 8-1 3 0 6 0 8 1z m-44 358l-3-239c-46-2-89-18-128-49-14-12-28-26-40-41l0 240c53 110 129 103 171 89z m-3-286l-158-72c13 19 29 36 46 50 34 27 71 41 112 43l0-20c0-1 0-1 0-1z m-372 0c0 1 0 1 0 1l0 22c30-1 112-12 173-96 0 0 0-1 1-1z m130 256l0-165-3 3c-7 6-18 6-25 0l-2-2 0 185c10-5 20-12 29-20z m-56 32l0-212c0-7 5-14 11-17 7-3 15-1 20 3l10 9 10-9c5-5 13-6 20-3 6 3 11 9 11 17l0 155c8-10 16-20 23-31l0-239c-41 47-87 68-121 78-19 6-38 9-58 9l0 237c25 9 50 10 74 3z m118-409l-230 75c-3 1-5 4-5 6l0 295c0 3 3 6 7 6l10 0 0-240 1 0 0-20c0-10 6-20 15-24l193-83c6-2 14-2 20 1l179 82c9 4 15 14 15 24l0 20 1 0 2 240 10 0c4 0 7-3 7-6l-1-296c0-3-2-5-5-6z"/>
<glyph glyph-name="orange" unicode="&#2692;" d="M449 376c-31 33-73 57-123 67l2 6c3 9 2 18-3 26-5 8-14 13-24 15-1 0-3 0-4 0-3 1-6 2-10 2-17 0-32-13-34-31l0 0 0-16-8 22c-2 6-5 11-9 15-24 28-63 37-114 25l-6-1-1-6c-1-2-5-17 7-36 6-11 16-21 29-30-36-13-68-39-93-73-28-40-45-90-45-136 0-69 25-127 71-168 43-37 103-57 169-57 67 0 125 19 168 56 46 39 72 95 77 164 5 61-12 115-49 156z m-177 26l1 57c1 6 7 13 14 13l0 0c2 0 4-1 5-1 2-1 4-1 7-1 3-1 7-3 9-6 2-3 2-6 1-9l-9-32c0-1 0-2 0-3-1-1-2-2-3-3-8-22 4-33 16-40l5-3-23 0-22-19-13 26-38-4z m-130 68c-6 8-8 14-8 19 40 8 69 1 87-20 2-3 4-6 5-9l12-34c1-1 0-2 0-2 0-1-1-2-2-2-24 6-43 12-57 19l0 1-2 0c-19 10-30 20-36 28z m330-249c-5-60-28-111-68-145-38-32-91-49-151-49-60 0-114 18-152 50-40 36-61 87-61 148 0 41 14 85 40 120 27 38 64 63 104 71l0 1c14-6 29-10 45-14l-31-15-1-1c-7-5-6-17-3-23 4-7 9-9 14-8l40 4 11-21c2-4 6-7 10-8 4 0 8 1 11 4l23 19 39 0c6 0 12 5 13 11 2 6-1 12-6 15l-26 14c-4 3-7 5-8 7 0 1-1 3 1 9 1 1 1 2 1 3 1 1 2 3 2 4 45-9 83-29 110-59 32-35 47-82 43-137z m-311 101c-24 10-54-6-68-35-8-17-9-35-4-50 4-10 12-18 21-23 4-1 7-2 11-2 6 0 14 3 22 13 7 8 12 19 17 31 2 2 3 5 4 7 1 2 2 5 3 7 8 16 13 27 9 38-2 6-7 11-15 14z m-12-43c-1-3-2-5-3-7-1-3-3-5-4-8-5-10-10-21-15-27-5-6-7-5-9-4-5 2-8 6-10 11-4 10-3 22 3 34 9 20 29 31 42 26 3-1 4-3 5-3 1-3-5-14-9-22z"/>
<glyph glyph-name="overcast" unicode="&#2664;" d="M474 229c-9 9-24 16-39 20-9 2-25 4-38 0-7 20-18 42-34 58-4 4-8 7-12 10 0 3 0 6-2 8-23 40-64 67-110 70l0 76c0 7-6 13-13 13-7 0-13-6-13-13l0-76c-67-7-119-61-124-128l-76 0c-7 0-13-6-13-13 0-7 6-13 13-13l76 0c1-12 4-23 8-34-7-2-14-5-21-9-22-14-36-40-41-75-6-41 10-76 42-90l0 0 15-5 351 0 6 2 1 0c38 13 62 53 62 103 0 36-15 75-38 96z m-71 0c0-1 0-3 0-4 0 1 0 3 0 4z m-25 4c0-1-1-3-1-5 0 2 1 4 1 5z m-150 137c32 0 62-13 83-37-11 2-22 2-33 1-41-3-69-20-87-50-15-24-20-55-24-85l-14 4c-9 3-19 5-28 5-7 15-11 32-11 48 0 63 51 114 114 114z m215-315l-3-1-344 0-9 3c-31 14-28 51-27 62 4 28 14 47 30 57 17 11 40 7 56 2l26-6c2-2 8-3 14 1 6 4 6 10 6 13 0 1 0 1 0 2 3 30 8 60 21 83 14 23 35 35 67 38 57 4 79-26 97-80 0 0 0 0 1-1 0-2 0-4 1-6l6-10 11 5c2 1 4 3 5 5l2 1 1 1c9 6 40-1 53-13 14-14 29-44 29-78 0-38-17-69-43-78z m-412 288l47-24c2-1 4-2 6-2 6 0 11 5 12 10 2 6-1 12-6 15l-47 24c-6 4-14 1-17-5-3-7-1-14 5-18z m102 46c2-4 6-7 11-7 5 0 9 3 12 7 2 4 2 9-1 13l-25 44c-4 6-11 7-17 4-6-4-9-11-5-17z m238-67c2 0 5 1 6 2l41 22c6 4 8 12 5 18-4 6-12 9-18 5l-40-22c-5-3-8-9-7-15 2-6 7-10 13-10z m-66 64c6-4 14-2 18 4l24 41c3 4 3 10 1 14-3 4-7 6-12 6-4 0-9-2-11-6l-25-42c-3-6-1-14 5-17z"/>
<glyph glyph-name="owl-post" unicode="&#2598;" d="M489 146c-4 16-18 28-35 28 24 24 40 51 48 69 2 5 2 12-1 17-3 5-8 9-14 10l-45 11c100 90 59 174 41 209 0 1-1 3-2 4l-8 18-193-182c0 5-1 10-3 14-8 25-28 43-53 51 10 23 13 41 8 55l-27-9c3-10-3-25-10-40-16 2-32-1-47-6-33-11-58-35-69-62-27 13-38 25-38 32l-29-2c2-21 21-41 61-59-1-10 1-19 4-28 3-9 8-18 14-25l-86 10 4-20c1-3 16-75 80-106 19-8 39-12 60-12 34 0 72 10 114 31 10-6 21-11 31-15l0 0c-18-4-29-22-25-40l17-71c3-16 18-28 34-28 3 0 6 0 8 1l147 31 0 0c21 5 34 25 29 46z m-53-4l-51-56-72 28z m35 103c-14-27-49-76-103-86-47-9-99 15-154 69 20 9 38 22 50 40 29-31 68-38 83-41 2 0 5-1 7-1 7 0 14 2 21 6 14 9 27 17 39 26z m-111 12c-2-2-5-2-8-2-5 1-12 3-18 4 17 12 40 28 64 47 35 29 61 56 79 82-9-46-48-91-117-131z m104 207c3-6 5-12 8-19-7-32-38-73-92-116-25-20-51-39-78-56-8 5-15 12-21 19z m-214-129c11-32-13-69-53-83-20-7-41-7-59 0-17 7-29 18-34 33-1 2-1 5-2 7 15-6 26-9 26-9l8-2 6 6c1 0 10 9 21 22 7-7 18-10 27-7 10 3 17 12 18 22 1 10-4 20-13 25 6 7 11 14 15 21 19-5 34-18 40-35z m-93 33c7 2 13 4 20 5-3-4-5-8-7-10-13-18-27-34-42-50-6 2-14 5-23 8 8 20 27 38 52 47z m34-157c4-3 7-7 10-10-31-5-92-8-153 17-2 4-3 7-4 10z m-89-50c-9 5-18 10-25 17 25-6 52-9 78-9 25 0 49 2 74 8 2-1 4-3 6-5-54-23-98-27-133-11z m367-101l-147-31 0 0c-4-1-8 2-9 5l-13 58 92-35 70 77 14-62c1-5-2-11-7-12z"/>
<glyph glyph-name="padlock" unicode="&#2594;" d="M413 350l-10 0 0 113c0 27-22 49-49 49l-190 0c-28 0-50-22-50-50l0-112-12 0c-32 0-58-27-58-59l0-235c0-31 25-56 54-56l309 0c33 0 61 28 61 63l0 231c0 31-25 56-55 56z m-268 112c0 5 2 9 6 13 3 3 8 5 13 5l190 0c9 0 17-8 17-17l0-113-226 0z m291-399c0-17-13-31-29-31l-309 0c-12 0-22 10-22 24l0 235c0 15 12 27 26 27l311 0c13 0 23-11 23-24z m-181 192c-36 0-67-32-67-70 0-31 21-57 51-65l0-64 32 0 0 64c30 8 51 34 51 65 0 38-31 70-67 70z m0-105c-19 0-35 16-35 35 0 20 17 38 35 38 18 0 35-18 35-38 0-19-16-35-35-35z"/>
<glyph glyph-name="peach" unicode="&#2693;" d="M490 142c-12 13-31 22-54 25 20 29 29 64 24 100-1 4-5 40-17 64-38 75-101 134-188 174-20 9-45 9-72 2-24-6-46-18-60-31-37-37-68-80-90-128-26-55-35-109-27-156 0-1 0-2 1-3 0-1 0-2 0-3 5-32 22-60 50-80 3-3 7-5 11-8-6-5-11-12-16-19-10-18-13-41-8-68 1-6 6-11 13-11 1 0 2 0 3 0l1 0c24 6 48 14 71 23 42 18 66 39 69 63 15 2 30 6 42 14 4-2 9-3 14-4 0-1 1-3 2-4 18-25 61-38 131-40 8 0 15 0 23 0 42 0 78 3 82 4 7 0 12 5 13 12 4 31-2 56-18 74z m-264-7c-5 3-10 7-13 11l62 58c11 10 27 10 38 2l6-5c20-17 51-13 67 7l30 43c4 5 10 8 16 7l3 0c6-65-45-126-117-138-32-5-65 0-92 15z m-170 202c21 45 50 86 86 120 19 19 70 39 102 24 81-37 141-92 176-162 6-12 10-30 12-42-13 1-25-5-32-15l-29-42c-10-12-28-14-40-4l-6 5c-18 14-45 13-63-3l-60-55c-3 4-5 8-7 12-8 20-10 39-4 50 2 4 1 9-1 13-3 4-7 6-12 6-5-1-9-4-11-8-8-18-7-44 5-71 1-4 3-8 5-11-15-2-30-2-45-1-44 4-79 22-102 53-4 40 5 85 26 131z m-18-168c25-20 56-32 92-35 7-1 14-1 21-1 13 0 25 1 37 2 7-9 14-16 22-21-10-2-20-4-31-5-6 0-12-1-17-2-21-3-41-2-60 5-2 0-3 1-4 1-10 4-18 8-26 14-15 11-27 25-34 42z m84-122c-18-7-36-13-54-18-2 27 8 46 28 57 15-4 30-7 45-7 8 0 17 1 25 2 2 1 4 1 7 1-7-11-24-24-51-35z m361 34c-59-6-140-6-182 11 7 1 14 1 21 2 35 6 68 23 94 48l0 0c18 0 41-3 55-18 9-10 13-24 12-43z m-153 234c1 0 2 0 3 0 7 0 13 2 18 6 16 14 11 46-12 74-14 18-32 30-48 32-8 0-15-2-21-6-16-14-11-46 12-74 14-19 32-30 48-32z m-47 91c1 1 3 2 5 1 0 0 1 0 1 0 8 0 23-8 35-24 17-21 20-42 14-47-1-1-3-2-6-1-9 0-23 8-35 24-17 21-20 42-14 47z"/>
<glyph glyph-name="pear" unicode="&#2694;" d="M421 213c44 72 18 144 16 150-4 13-15 24-26 33 6 8 10 17 13 26 6 19 8 49-19 81l-1 2-2 1c-10 5-30 11-47 0-9-6-12-19-6-28 5-8 18-33 17-57-32 10-64 5-92-14-34-23-56-52-66-68-2-3-3-3-8-4-4-1-7-2-11-3-3-2-7-3-11-5-25-9-51-18-71-46-35-52-48-100-39-145 9-42 38-80 85-110 28-17 60-26 94-26 10 0 20 1 29 2 45 7 84 28 111 59 41 49 37 94 34 124-2 12-3 23 0 28z m-34 270c13-17 17-34 12-52-2-5-4-10-7-15 3 27-9 54-17 69 4 1 8 0 12-2z m7-301c3-28 7-64-27-103-23-27-57-45-95-51-38-5-75 2-104 21-29 18-65 48-74 93-7 37 4 78 35 124 15 21 35 28 58 36 4 2 8 3 12 5 2 1 5 1 7 2 7 2 16 4 24 16 16 23 36 44 59 60 13 9 29 14 45 14 8 0 17-1 26-4 7-3 19-9 30-16 11-9 19-17 22-24l0-1c0-1 25-64-14-127-7-13-6-28-4-45z m-17 167c-2 1-8 3-12 3-4 0-7-3-8-7 0-11-13-43-19-55-2-4-1-8 1-11 2-2 4-4 7-4 1 0 2 1 3 1l24 7c3 1 7 4 8 8 9 20 7 41 6 48-1 4-4 7-10 10z m-8-53c0 0 0 0 0 0l-16-5c5 11 14 33 17 47 1-1 3-2 4-2 1-8 2-24-5-40z"/>
<glyph glyph-name="pine" unicode="&#2629;" d="M446 102l-57 122c4 4 6 10 3 15l-42 94 10 6-89 166c-2 4-6 7-11 7l-8 0-91-169-4-9 7-7 1 0-54-106c-2-4-2-9 0-13 1-2 2-3 4-4l-49-104c-2-5-2-10 1-14 3-4 7-7 12-6 28 1 54 13 75 31 1-3 3-6 5-9 10-14 22-21 34-22 12 0 24 7 34 22 4-8 10-15 17-20l0-82 41 0 0 83c5 5 11 12 16 21 14-21 27-25 36-24 15 1 25 15 32 31 4-4 8-8 12-12 18-15 37-20 55-16 4 1 8 4 10 7 2 4 2 8 0 12z m-186 370l63-118c0 0-1 0-2 0-8 3-16 11-23 25-3 4-8 7-14 6l-9-1-1-9c-3-15-8-28-11-34-3 4-8 13-14 33-1 5-6 8-11 9l-8 1-4-7c-7-11-23-29-35-33z m-70-154c0 0 1 0 2 0 16 2 30 15 40 26 8-17 17-31 31-31l1 0c4 1 17 1 28 30 6-6 14-11 22-14 4-1 7-1 10-1l39-87c-5-1-10 0-14 1-13 5-20 22-22 25-2 5-7 9-13 8-6 0-11-4-12-10-8-32-15-39-17-41-4 3-14 17-22 40-2 5-7 9-13 9l0 0c-6 0-11-4-13-10-7-24-13-33-15-35-4 3-9 15-14 32-1 6-7 10-13 10-6 0-11-3-13-9-6-19-23-27-37-31z m187-176c-3 5-8 8-14 7-6 0-10-4-12-10-8-29-15-33-16-34-3 1-12 10-21 31-2 5-8 9-13 9l0 0c-6 0-11-4-13-9-14-35-24-36-25-36-5 0-14 13-22 32-2 5-7 9-13 9-5 0-10-3-13-8-9-20-17-27-21-27l0 0c-7 0-17 14-24 31-2 4-6 8-11 8-5 1-10-1-13-5-12-14-29-25-47-31l44 94c6 1 12 3 18 5 12 4 22 11 31 20 8-18 18-27 29-27 9 0 17 5 24 16 3 3 5 6 6 10 9-16 20-29 35-29l1 0c15 1 25 16 32 34 6-6 12-11 20-14 8-3 17-4 25-3l50-106c-18 7-34 28-37 33z"/>
<glyph glyph-name="poison" unicode="&#2614;" d="M473 350c-29 39-75 52-115 54l0 13 26 0c15 0 27 12 27 27l0 41c0 15-12 27-27 27l-254 0c-15 0-27-12-27-27l0-41c0-15 12-27 27-27l22 0 0-13c-63-4-97-30-114-53-14-20-23-44-25-71-2-24 1-50 9-76 19-59 41-95 75-123 31-25 72-44 130-69l0 0 19-9c7-4 15-4 23 0l16 8 0 0c59 25 99 44 130 69 34 28 56 64 75 123 17 55 11 110-17 147z m-341 97l0 36 249 0 0-36z m197-31l0-12-148 0 0 12z m133-204c-17-54-36-84-66-109-30-24-74-44-139-72-66 29-110 48-141 73-30 25-48 55-66 109-14 46-10 91 12 120 21 29 59 43 111 42l0 0c2 0 4-1 6-1l152 0c3 0 5 1 7 1l0 0c51 1 90-13 112-42 22-30 27-75 12-121z m-209 135c-68 0-124-50-124-112 0-39 23-76 61-96l1 0 8-45 106 0 16 46c35 21 57 57 57 95 0 62-56 112-125 112z m46-189l0-1-12-37-2 0 0 28-26 0 0-28-10 0 0 28-25 0 0-28-3 0-7 35 0 0 0 1 0 0 0 0-12 6 0 0c-30 16-48 43-48 73 0 47 45 86 99 86 55 0 100-39 100-86 0-32-22-62-54-77z m-107 38l16 19 37-32-17-19z m77-11l36 31 17-19-36-32z"/>
<glyph glyph-name="quill" unicode="&#2608;" d="M511 482l0 0c-93 38-177 38-251 1-36-18-69-45-99-80-24-28-46-61-65-98-13-26-24-53-34-80-1-2-1-3-2-4l0-1c-2-8-5-15-7-21l-14 6-39-204 78 74 12 110-9 3c2 7 5 15 8 25 8 12 32 19 45 21 13-1 27-5 40-9 16-5 31-9 46-9 7 0 14 3 18 10 3 6 3 14 0 20l-1 1-13 16 68-9 3 0c45 11 84 28 117 52 26 19 48 43 65 71 19 32 31 68 35 104 0 0 0 0 0 1z m-470-406l17 91 2-3 1 2-8-78z m232 380c51 25 107 31 168 17-33-14-83-37-136-63-77-39-136-74-174-104 31 57 77 117 142 150z m18-172l-84 11c-6 2-13-1-19-8-9-10-6-18-4-22l0-1 12-14c-4 1-9 2-13 4-16 4-31 9-48 10l-2 0-2 0c0 0-2 0-4-1 39 40 123 86 192 120 68 34 132 62 159 73-13-51-53-140-187-172z"/>
<glyph glyph-name="rain" unicode="&#2677;" d="M471 397c-17 16-56 30-82 20-8 23-19 46-37 64-23 22-52 31-91 28-43-3-73-21-93-53-15-27-21-59-25-92l-16 4c-32 11-60 9-82-5-23-15-39-42-44-80-6-44 11-81 44-96l1 0 15-5 377 0 7 2 1 0c19 6 36 20 48 40 12 19 18 44 18 70 0 39-16 80-41 103z m-76 0c0-1 0-3-1-5 1 2 1 4 1 5z m-26 4c0-1-1-3-1-5 0 2 1 4 1 5z m69-191l-3-1-369 0-10 3c-33 15-30 55-28 67 4 30 15 51 31 61 19 12 43 8 60 3l28-7c3-2 9-3 15 1 7 4 7 11 6 13 0 1 0 2 0 3 4 32 9 65 23 89 15 25 38 38 72 41 62 5 85-28 105-86 0 0 0-1 0-1 0-2 1-4 2-6l6-11 11 5c3 1 5 3 6 6l2 1 1 0c10 7 44-1 57-13 16-15 32-47 32-84 0-41-19-75-47-84z m-274-152c-6 4-15 2-18-5l-18-30c-3-5-3-10-1-14 3-5 7-7 12-7 5 0 10 3 12 7l18 31c4 6 2 14-5 18z m66 111c-7 4-15 1-19-5l-41-73c-3-4-3-9 0-14 2-4 7-7 12-7 5 1 9 3 12 8l41 72c3 7 1 15-5 19z m-87 6c-6 4-15 2-18-5l-61-107c-3-6-1-14 5-18 7-4 15-1 19 5l60 107c4 6 2 15-5 18z m164-11c-6 4-15 1-18-5l-43-76c-3-4-3-10 0-14 2-4 7-7 12-7 5 0 9 3 11 7l43 77c4 6 2 14-5 18z m87 3c-7 4-15 1-19-5l-74-132c-3-4-3-9 0-14 2-4 7-6 12-6 5 0 9 2 12 7l74 131c2 4 2 7 1 11-1 3-3 6-6 8z"/>
<glyph glyph-name="rose" unicode="&#2630;" d="M416 189l0 13-13 0c-64 0-104-25-127-46-3-3-6-6-9-10l0 115c7 0 13 1 20 3 25 4 47 18 63 37 28 34 38 85 29 152 1 0 1 1 1 2 3 24-29 38-58 47-4 2-77 26-163-7l-1-1c-5-2-9-4-13-7-9-7-15-15-17-23-2-5-2-11 0-16-4-78 13-132 50-163 21-16 44-22 63-24l0-81c-2 3-4 5-7 8-21 21-61 47-125 46l-13 0 0-12c0-2-1-34 18-72 16-33 52-76 127-99l0-51 26 0 0 17c78 23 115 68 131 101 19 38 18 70 18 71z m-85 129c-10-12-24-21-39-26-3 17-9 33-17 48 19 30 61 35 79 36-4-24-11-43-23-58z m-178 139c1 4 9 11 15 14 78 29 145 7 146 7l0 0c29-10 37-17 39-20-2-2-9-7-25-11-16-4-31-7-47-8 0 0-36-2-64 8l-1 1c0 0-1 0-2 0 0 1 0 2 0 2 1 0 1 0 2 1 28 5 63 0 63 0l5 25c-2 0-40 7-74 0-23-5-22-24-21-31l0-1c1-14 13-19 19-21l1 0c33-12 72-10 73-10 1 0 45 3 74 17 0-10 1-20 0-28-18-1-67-5-96-39-4 6-9 11-13 17-23 25-50 43-68 54-7 6-14 10-16 12-2 2-5 4-7 5-1 1-2 2-2 2-2 2-1 3-1 4z m0-36c3-2 7-5 12-8 32-22 90-60 102-126-18-2-48-1-73 19-26 21-40 60-41 115z m-16-260c-7 15-12 30-14 47 37-2 68-15 92-38 11-10 20-23 26-37l0-55c-49 17-84 44-104 83z m238-33c-20-39-57-67-108-84l0 57c6 13 38 70 122 75-2-17-7-33-14-47z"/>
<glyph glyph-name="sapling" unicode="&#2695;" d="M500 484c-12 13-32 21-54 21-83-3-131-36-156-63-14-15-25-31-33-50-8 21-19 39-34 55-25 27-73 60-157 62-22 1-43-7-55-20-10-12-14-26-9-39 8-22 42-54 230-79l-7-42c-40-3-78-11-105-22-41-16-50-36-50-50 0-5 2-10 4-14l-1 0 40-197c2-12 11-22 22-26 31-11 47-15 80-17l14 0c6 0 12 2 16 6 3 3 5 7 4 11l-5 42 26-1 1-40c0-4 1-8 4-11 4-4 10-6 16-6l7 1c42 2 73 6 91 11 13 4 23 15 25 29l32 202 0 0c0 3 1 7 1 10 0 14-9 35-52 52-26 10-61 17-99 20l-8 38c182 25 214 56 222 78 3 9 4 23-10 39z m-236-131l27-142c-10 0-21-1-32-1-9 0-18 1-27 1l24 143z m-237 106c-1 2-2 5 4 12 7 7 19 12 33 12 0 0 1 0 1 0 60-2 107-20 138-54 9-9 16-19 22-31-171 24-195 53-198 61z m103-176c23 9 55 16 90 19l-14-88c-20 3-41 7-60 13-36 12-49 24-49 30 0 6 8 16 33 26z m258-234l0 0c0-3-3-6-6-7-11-3-35-8-85-11l0 39c0 4-2 8-5 12-3 3-7 5-11 5l-47 2c-5 0-9-2-13-5-3-4-5-8-4-13l5-42-6 0c-30 2-43 5-72 15-3 2-5 4-5 7l-33 164c10-5 21-10 32-13 35-11 81-18 121-18 48 0 93 6 128 18 9 3 18 7 27 12z m-3 235c22-8 35-19 35-27 0-7-11-19-42-30-17-6-38-10-60-13l-17 88c33-3 62-9 84-18z m100 170c-2-4-9-15-47-28-34-12-85-23-151-32 6 11 13 21 22 30 32 34 78 53 137 54l2 0c13 0 26-4 32-12 7-7 6-11 5-12z"/>
<glyph glyph-name="scale" unicode="&#2631;" d="M496 303l1 1-1 0-41 123 0 19-163 0 0 35c0 17-14 31-32 31l-12 0c-17 0-31-14-31-31l0-35-160 0 0-21-41-120-1 0 7-17c10-30 27-70 55-70l1 0c15 1 30 13 42 38 5 11 9 21 12 32l5 17 0 0 0 0-38 114 118 0 0-288c0-2 0-3 0-5l-69 0c-16 0-28-13-28-29l0-19c0-2 0-3 0-5l-6 0c-17 0-31-13-31-31l0-11c0-17 14-31 31-31l280 0c18 0 32 14 32 31l0 11c0 18-14 31-32 31l-4 0c0 2 0 3 0 5l0 19c0 16-12 29-28 29l-71 0c0 2 1 3 1 5l0 288 123 0-40-115 0 0 6-18c10-29 27-69 55-69l1 0c16 0 30 13 42 38 5 10 9 21 13 32l4 16z m-419-58c0 0-10 0-24 34l48 0c-8-19-18-34-24-34z m-33 60l33 95 31-95z m350-258c3 0 5-2 5-5l0-11c0-2-2-4-5-4l-280 0c-2 0-4 2-4 4l0 11c0 3 2 5 4 5z m-32 52c1 0 2-1 2-2l0-19c0-1-1-2-2-2l-214 0c-1 0-2 1-2 2l0 19c0 1 1 2 2 2z m-119 382c0 2 2 4 5 4l12 0c3 0 5-2 5-4l0-35-22 0z m22-350c0-2-2-4-5-5l-12 0c-2 1-4 3-5 5l0 288 22 0z m171 113c0 0-9 0-23 33l47 0c-7-18-18-33-24-33z m-33 60l33 95 32-95z"/>
<glyph glyph-name="seedling" unicode="&#2632;" d="M495 501c-3 4-7 7-12 8-86 12-148-14-178-31-16-9-27-26-28-45l-5-65c-8-10-15-21-20-33-3 18-15 72-61 98-41 24-97 18-165-15-10-5-14-16-10-26 9-21 45-93 109-113 11-4 23-5 34-5 27 0 55 9 83 27 1-1 2-2 3-3l0-113c-24-4-45-20-55-43-5-12-9-24-11-37-18 9-46 16-68 4-18-9-28-29-31-57l-1-1 0-51 335 0 2 10c1 2 13 53-13 81-13 15-33 21-59 17-9 17-19 33-30 48-10 14-26 24-43 28l0 131c1 2 2 5 4 9 25-14 48-22 71-22 13 0 26 3 39 8 32 14 60 45 83 93 13 27 22 55 29 85 1 4 0 9-2 13z m-246-172l-1 0 1 0z m-116-25c-50 15-80 70-91 93 58 28 104 32 136 14 28-16 40-46 45-66l-3 2c-35 19-69 27-98 21l5-25c34 6 69-11 92-26-31-17-60-22-86-13z m160-163c11-15 20-30 28-45 5-10 15-15 26-14 17 3 30 0 37-8 11-12 11-34 9-48l-288 0 0 24c3 19 8 31 18 36 6 3 22 8 53-8 6-3 13-3 18 0 6 4 10 10 10 16 1 13 4 25 9 37 8 16 22 27 38 29 17 2 32-5 42-19z m151 273c-19-41-43-69-69-80-26-10-55-6-87 12 3 4 5 7 8 10 23 27 51 39 83 35l3 26c-29 3-59-4-82-22l3 36c0 10 6 19 15 25 25 14 79 37 152 28-6-24-15-48-26-70z"/>
<glyph glyph-name="shield" unicode="&#2615;" d="M487 375c-29-2-52 5-68 21-36 34-33 100-33 101l1 15-262 0 1-15c0-1 3-67-33-101-16-16-39-23-68-21l-17 2 2-17c0-4 9-88 56-178l-27-15c-5-3-8-9-8-15 0-7 3-12 9-15l54-29 30-53c3-6 9-9 15-9l0 0c7 0 12 3 15 9l4 7c27-25 59-45 93-59l0 0 6-3 17 9c43 20 82 50 116 89 28 33 53 73 72 118 33 76 40 141 40 144l2 17z m-348-288l-22 38c-1 3-4 5-7 7l-39 20 39 22c3 1 5 4 6 7l21 39 22-39c1-2 4-5 6-6l39-21-38-22c-3-1-5-4-7-6z m117 20l-2 1-9 5c-9 5-18 10-26 17l17 10c6 3 9 9 9 15 0 6-4 12-9 15l-54 28-31 54c-4 8-14 11-22 7-6 19-11 38-15 57 21 3 38 12 51 26 20 21 25 49 26 65l130 0c2-16 7-44 26-65 13-14 30-23 51-26-5-27-13-53-24-79-26-62-66-106-118-130z m180 120c-18-42-41-80-68-111-24-29-54-53-87-71l-20-11c-2-1-3-1-5-2l-23 11c-22 13-43 27-62 45l12 21 14 8c9-7 18-13 28-19l-1-1 10-5c3-1 7-3 10-5l13-6 27 15 0 0c48 28 86 73 112 132 22 52 26 96 27 98l1 12-13 1c-20 0-35 6-47 18-21 23-20 61-20 61l1 13-178 0 1-13c0 0 1-37-20-61-11-12-27-18-47-18l-13-1 1-12c1-2 5-41 24-90l1 1-21-40-2-1c-32 62-45 123-50 151 29 0 53 10 72 28 34 33 40 83 41 108l204 0c1-25 7-75 41-108 19-18 43-28 72-28-7-41-19-82-35-120z m-149 75l-30 16-17 29c-2 4-5 6-9 6-5 0-8-2-10-6l-16-30-30-17c-4-2-6-6-6-10 0-4 3-8 6-10l31-16 16-29c2-4 6-6 10-6l0 0c4 0 8 2 10 6l16 30 30 17c3 2 6 6 5 10 0 4-2 8-6 10z m-41-21c-1-1-3-3-4-5l-10-19-11 19c-1 2-2 3-4 4l-20 10 19 11c2 1 4 3 5 5l10 19 11-19c1-2 2-3 4-4l19-11z"/>
<glyph glyph-name="snake" unicode="&#168;" d="M509 495l-20 17-21-28-41 0c-1 4-2 7-2 8l-2 12-88 0-40-33c-9 7-20 11-32 11l-77 0-6 0c-14 0-21 0-44-6-21-5-40-22-51-45-10-21-14-46-11-75 2-26 9-54 20-83l-65-1c-13-1-23-10-26-23-3-15 3-29 15-34 8-4 17-7 25-9 15-5 34-12 36-20 1-2 1-13-22-41-3-3-34-40-26-80 5-24 22-44 52-59 8-3 17-5 26-5l103 0c17 0 52 5 77 36 31 38 34 102 8 189l11 0c36 0 65 13 86 38 44 53 41 145 36 194l38 0 21-24 20 17-18 21z m-139-211c-15-18-35-27-62-27l-32 0c-10 0-30 11-35 18-16 23-21 35-8 75l1 1c3 11 5 14 5 16 4 10 4 21-2 29-6 8-15 13-24 13l-41 0 0-31 38 0c-1-2-2-6-3-10l0 0c-19-52-17-75 8-111 9-13 31-25 49-30 25-81 26-140 1-171-17-20-41-24-53-24l-6 0c-1 0-2 0-2 0l0 0-95 0c-4 0-9 1-12 2-21 10-33 23-35 37-3 13 2 26 6 35 4 7 8 13 12 18l1 1c24 29 33 51 28 70-7 23-33 32-56 40-5 2-10 4-15 6l69 1 1 0c6 0 12-1 18-2 12-2 21-7 26-14 10-14 7-40-8-74-3-7-5-14-7-21l0-1c-4-14-1-27 7-37 10-12 26-17 50-15l-2 31c-14-1-22 1-24 4-2 3-1 8-1 10l0 1c2 5 3 10 5 15 20 46 22 81 5 105-13 18-33 25-49 27-34 82-24 127-14 147 7 15 18 25 30 28 20 5 25 5 36 5l5 0 78 0c5 0 9-2 13-5 31-25 19-75 9-102l29-11c21 55 14 91 2 114l30 26 51 0c3-22 4-44 4-67 0-55-10-97-31-122z m-16 155l1 20 31 0-1-20z"/>
<glyph glyph-name="snake-flipped" unicode="&#2657;" d="M21 472l-18-21 20-17 21 24 38 0c-5-49-8-142 36-194 21-25 50-38 86-38l11 0c-26-87-23-151 8-189 25-31 60-36 77-36l103 0c9 0 18 2 26 5 30 15 47 35 52 59 8 40-23 77-26 80-23 28-23 39-22 41 2 8 21 14 36 20 8 2 17 5 25 9 12 5 18 19 15 34-3 13-13 22-26 23l-65 1c11 30 18 58 20 83 3 29-1 54-11 75-11 23-30 40-51 45-23 6-31 6-45 6l-5 0-77 0c-12 0-23-4-32-11l-40 33-88 0-2-13c0 0-1-3-2-7l-41 0-21 28-20-17z m90-66c0 22 1 45 4 67l51 0 30-26c-12-23-19-59 2-114l29 11c-10 27-22 77 9 102 4 3 9 5 13 5l78 0 5 0c11 0 16 0 36-5 12-3 23-13 31-28 9-20 19-65-15-147-16-2-36-9-49-27-17-24-15-59 5-105 2-5 4-10 5-15l0-1c0-2 1-7-1-10-2-2-9-5-24-4l-2-31c24-2 40 3 50 15 8 10 11 23 7 37l0 1c-2 7-4 14-7 21-15 34-18 60-8 74 5 7 14 12 26 14 6 1 12 2 18 2l1 0 69-1c-5-2-10-4-15-6-23-8-49-17-56-40-5-19 4-41 28-70l1-1c4-5 8-11 12-18 4-8 9-22 6-35-2-14-14-27-35-37-3-1-8-2-12-2l-95 0 0 0c0 0-1 0-2 0l-6 0c-12 0-36 4-53 24-25 31-24 90 1 172 18 4 40 17 49 29 25 36 27 60 9 111l-1 0c-1 4-2 8-3 10l38 0 0 31-41 0c-9 0-19-4-24-13-6-8-6-19-2-29 0-1 2-5 5-16l1-1c13-40 8-52-8-75-5-7-25-18-35-18l-32 0c-27 0-47 9-62 27-21 25-31 67-31 122z m15 53l32 0 0-20-31 0z"/>
<glyph glyph-name="snitch" unicode="&#2616;" d="M479 222l-1 0-29-1c13 8 25 18 35 28 23 24 28 43 28 53 0 6-2 11-7 14-5 3-11 3-16 0-36-21-156-53-215-66 13 18 21 34 21 44l0 0c-1 4-1 10-6 14l-6 4-7-2c35 36 43 70 45 81 1 6-1 11-5 14-5 3-11 4-16 2l-1-1-25-15c7 13 13 27 18 42 9 32 3 51-1 59-3 5-8 9-14 9-5 0-11-3-13-8-27-44-160-166-182-180-6-4-10-12-10-18l-2-59c-50-22-78-75-68-129 10-54 56-93 110-96 55-3 104 33 119 85 2 0 4 0 6 0 2 0 5 1 8 2l26 8 37-15 6-2c3-1 7-2 10-1l1 0c67 3 89 28 94 36 2 2 6 9 3 16l-2 7-8 2c48 15 71 40 78 50 4 4 4 9 2 14-2 5-7 9-13 9z m-327-90c2-9 8-16 16-20 12-4 24-8 37-11-2-4-4-9-6-13-13-3-32-1-54 23-6 6-14 9-23 9-7 0-14-4-18-9-21-28-51-30-64-30 0 2-1 3-2 4-7 12-10 26-11 41 10-5 21-8 32-8 4 0 8 0 11 1 40 6 67 43 61 83-1 6-3 12-5 17 23-2 44-12 60-30l-27-32c-6-7-9-16-7-25z m-53 160c23 16 123 107 170 163-3-22-16-56-52-98-4-5-5-13-1-18 4-5 11-7 17-4l1 0 50 31c-1-2-2-4-4-7-14-24-37-46-68-65-6-4-8-12-5-18 3-7 10-10 17-8l36 10c-10-16-31-41-63-62-27 25-64 35-100 29z m-3-75c14-18 11-44-5-60-17-15-42-16-60-2 9 31 34 54 65 62z m-3-176c-11 3-21 9-30 15 24 4 46 17 61 37 1 0 1 0 1 0 16-18 35-29 53-32-23-21-55-28-85-20z m346 149c-24-14-55-22-91-25-7 0-13-6-13-13-1-7 4-13 11-15l37-9-1 0c-14-8-34-12-57-13l-8 2-37 15 0 0c-6 2-12 2-17 0l-27-9c0 0-1 0-1 0-4 0-5 0-9 1-2 0-3 1-5 1-18 4-33 8-42 12 0 1 0 1 0 2l0 0 34 41 34 38 1 0c27 4 159 35 227 62-13-18-41-41-93-62-6-2-9-8-8-15 0-6 6-11 12-11l1-1 58 3c-2-1-4-2-6-4z"/>
<glyph glyph-name="snow" unicode="&#2676;" d="M471 409c-10 8-26 15-42 18-10 2-26 4-40-1-20 47-51 86-128 81-43-3-73-19-92-47-16-23-22-52-26-80l-16 4c-34 9-63 7-86-8-21-13-34-37-40-68-6-40 11-73 45-86l16-5 376 0 6 2 1 0c20 6 37 18 48 35 12 17 19 39 19 63 0 35-17 71-41 92z m-76-2c0-2 0-3 0-4 0 1 0 2 0 4z m-26 4c-1-2-1-4-1-5 0 1 0 3 1 5z m69-166l-3 0-369 0-10 3c-32 12-29 46-28 55 4 24 14 41 28 50 16 10 38 12 64 4l28-6c3-1 9-3 15 2 6 4 6 11 6 13 0 1 0 1 0 2 3 27 8 56 22 76 15 22 38 33 72 35 62 5 85-23 105-73l0-1c0-2 0-4 1-5l6-12 12 6c2 1 4 2 6 4l2 1 0 1c11 6 44-1 58-12 15-13 31-40 31-71 0-35-18-63-46-72z m-249-52c7-8 7-20 0-27-8-8-20-8-28 0-7 7-7 19 0 27 8 8 20 8 28 0z m84-45c10-4 15-15 11-25-4-10-15-14-25-10-10 4-15 15-11 25 4 10 16 15 25 10z m95 36c2-11-4-21-15-24-10-2-21 4-23 15-3 10 4 21 14 23 11 3 21-4 24-14z m-174-102c2-10-6-20-16-22-11-1-21 6-22 16-2 11 5 21 16 22 10 2 20-5 22-16z m95-58c0-10-9-19-20-19-10 0-19 9-19 19 0 11 9 20 19 20 11 0 20-9 20-20z m69 76c10-4 15-16 11-26-4-9-16-14-26-10-9 4-14 15-10 25 4 10 15 15 25 11z m-242 38c2-10-6-20-16-22-11-2-21 5-22 16-2 11 5 21 16 22 10 2 20-5 22-16z m335 0c2-11-5-21-16-22-10-2-20 5-22 16-2 10 5 20 16 22 11 2 21-6 22-16z"/>
<glyph glyph-name="snowflake" unicode="&#2675;" d="M493 300l-64 28 51 26c4 2 7 6 7 11 1 5-2 9-6 12-4 2-9 3-13 0l-50-25 14 68c2 7-3 14-10 16-7 1-14-3-16-10l-19-89c0 0 0 0 0 0l-41-21-8 53c0 4-3 8-6 10-4 3-9 4-13 3l-48-16 0 42 1 1 70 57c6 4 6 12 2 18-5 5-13 6-18 2l-55-44 0 57c0 7-6 13-13 13-7 0-13-6-13-13l0-57-54 44c-4 3-9 4-14 2-4-1-7-5-8-10-1-5 1-10 5-12l71-57 0-1 0-43-38 12c-4 1-9 1-12-2-4-2-6-5-7-8l-12-42-42 27-9 90c-1 7-8 12-15 12-7-1-12-7-12-15l8-68-45 29c-6 3-14 2-18-4-4-6-2-15 4-19l45-29-67-22c-4-1-8-5-9-10-1-4 1-9 4-13 4-3 9-4 13-2l86 28c1 0 1 0 2 1l42-28-36-29-1 0 0-1c0 0-1 0-1-1l0 0c0 0 0 0-1-1 0 0 0 0 0 0 0 0 0 0 0-1 0 0 0 0 0 0-1 0-1 0-1-1 0 0 0 0 0 0l0-1c0-1-1-2-1-3 0 0 0 0 0-1 0 0 0 0 0 0 0-1 0-3 1-4 0 0 0 0 0 0 0 0 0 0 0-1 0 0 0 0 0 0 0 0 0 0 0-1 0 0 0 0 1 0 0-1 0-1 0-1 0 0 0 0 0 0l0-1c1 0 1 0 1-1 0 0 0 0 0 0 0 0 1 0 1-1l32-32-46-23-82 37c-7 3-15 0-18-6-3-7 0-15 7-18l63-28-48-24c-6-4-9-11-5-18 3-6 11-9 17-6l49 25-15-69c-2-8 3-15 10-16 1 0 2 0 3 0 6 0 11 4 13 10l19 89c0 0 0 0 0 1l44 22 8-49c1-6 6-11 13-11 0 0 1 0 2 0 2 0 4 1 5 2 1 0 3 1 4 1l44 14 0-54-70-56c-6-5-7-13-2-19 4-6 12-7 18-2l54 43 0-53c0-7 6-13 13-13 7 0 13 6 13 13l0 54 55-44c4-3 9-4 13-2 5 1 8 5 9 10 0 5-2 10-5 12l-71 57c0 1 0 1-1 1l0 52 42-14 0 0 0 0 1 0c0 0 1 0 1 0l0 0c1 0 1 0 2 0 0 0 1 0 1 0l0 0c0 0 1 0 1 0l0 0c1 0 1 0 1 0l0 0 1 0 0 0 1 0 0 1 1 0 0 0c0 0 1 0 1 0l0 1 1 0 0 0 0 1 1 0 0 0 1 1 0 0 0 1c0 0 0 0 1 0l0 0c0 1 0 1 0 1 0 0 0 0 0 0 1 1 1 1 1 1 0 0 0 0 0 0 0 1 0 1 0 1 0 0 0 0 0 0 0 0 0 1 0 1 0 0 0 0 0 0 0 0 0 0 1 0l10 39 38-24c0 0 0-1 0-1l10-90c0-7 6-12 13-12 0 0 1 0 1 0 4 1 7 2 9 5 2 3 3 6 3 10l-7 69 47-31c6-4 15-2 19 4 4 6 2 15-4 19l-48 30 67 22c4 2 7 5 8 10 1 5 0 9-4 13-3 3-8 4-13 2l-86-28 0 0-38 24 34 28c5 3 6 10 4 15-1 3-2 5-4 7l-32 33 42 21 1 0 82-37c2-1 4-2 6-2 6 0 11 5 12 11 2 6-1 12-7 15z m-179 52l8-48-51-26 0 61z m-104-4l35-11 0-56-45 29z m-55-86l31 25 45-29-48-25z m45-94l-6 41 51 26 0-53z m108 0l-37 12 0 52 46-29z m27 109l27-28-30-25-48 31 49 25c0-1 1-2 2-3z"/>
<glyph glyph-name="sparkle" unicode="&#2617;" d="M496 206l-103 58-56 105c-3 7-10 11-18 11l0 0c-8 0-15-4-18-10l-59-104-104-55c-7-4-12-11-12-19 0-7 4-14 11-18l103-58 56-105c4-7 11-11 18-11l1 0c7 0 14 4 18 11l58 103 105 55c7 4 11 11 11 19 0 7-4 15-11 18z m-122-66c-4-2-7-4-9-8l-50-89-48 90c-2 4-5 7-8 9l-90 50 91 48c3 2 6 5 8 8l51 90 48-91c2-3 5-6 8-8l89-51z m-232 126l32 61 61 35c6 3 9 9 9 16 0 6-3 12-9 15l-62 33-35 60c-3 6-9 9-15 9-7 0-12-3-15-9l-33-62-61-34c-6-4-9-10-9-16 0-6 4-12 9-15l62-33 35-61c3-5 9-9 15-9l0 0c7 0 13 4 16 10z m-16 31l-26 46c-2 3-4 5-7 7l-47 25 46 26c3 1 5 4 7 7l24 47 27-46c1-3 4-6 7-7l47-25-47-26c-2-2-5-4-6-7z m226 136l34-18c2-1 3-2 4-4l19-33c2-4 5-6 8-5 4 0 7 1 9 5l18 34c1 1 2 3 4 3l34 19c3 2 5 5 5 9 0 3-2 6-5 8l-34 18c-2 1-3 3-4 4l-19 34c-2 3-5 5-8 5-4 0-7-2-9-5l-18-34c-1-2-2-3-4-4l-34-19c-3-1-5-5-5-8 0-4 2-7 5-9z"/>
<glyph glyph-name="spell" unicode="&#2624;" d="M502 500l-1 1c-13 12-34 12-47-1l-262-268c-1-1-2-2-3-3l0 1c-3 1-28 7-43-8-9-8-12-20-10-36l-85-87c-25-2-34-4-40-9-8-9-12-22-10-36 2-13 9-25 18-34 10-10 22-16 35-19 3-1 7-1 10-1 11 0 20 4 27 11 6 5 10 18 12 29l89 91c16-2 28 1 36 10 12 13 10 33 8 41 2 1 3 2 4 3l262 268c13 13 13 34 0 47z m-294-340c-1-2-7-3-17-1l-8 2-102-104-2 0c-1-4-5-22-8-27-3-3-9-2-12-2-8 2-15 6-20 11-6 6-10 13-11 19 0 3 0 7 2 11 5 1 19 2 24 3 4 0 6 0 8 1l1-2 103 106-1 8c-3 10-2 16 0 17 3 3 12 3 17 1l0 2c1-7 5-15 10-20l1 0c4-5 10-8 16-9 1-5 2-13-1-16z m275 312l-263-268c-2-2-6-2-8 0l0 1c-3 2-3 6 0 8l262 268c1 1 2 1 4 1 1 0 3 0 4-1l0-1c3-2 3-6 0-8z m-397-60l38-18 22-36c3-5 9-8 15-8l1 0c6 1 12 4 14 10l18 38 36 23c5 3 8 9 8 15-1 6-5 12-10 15l-38 17-23 36c-3 5-9 8-15 8-6 0-12-4-15-10l-17-38-36-22c-5-4-8-10-8-16 0-6 4-12 10-14z m53 29c3 1 5 4 6 7l10 20 11-19c2-3 4-5 7-6l20-10-18-11c-3-2-5-4-7-7l-9-20-12 18c-1 3-4 5-7 7l-20 9z m349-161l-15 10 10 17c3 5 2 12-3 15l-7 4c-5 3-11 1-14-4l-11-17-14 8c-6 4-14 2-17-4l-2-3c-3-5-2-13 4-16l14-9-10-17c-3-5-1-11 4-14l6-4c5-3 12-2 15 3l10 17 15-9c6-4 13-2 17 4l2 3c3 5 1 13-4 16z m-84-156l-11 51c-1 6-6 11-12 13-6 2-13 0-17-4l-37-37-52-11c-6-1-11-6-13-12-2-6 0-13 4-18l37-37 11-51c2-6 6-12 13-13 6-2 12-1 17 4l37 37 51 11c7 1 12 6 14 12 1 6 0 13-5 17z m-33-49c-3-1-6-3-8-5l-24-23-7 32c-1 3-2 6-5 9l-23 23 32 7c4 1 7 3 9 5l24 23 7-32c0-3 2-6 4-9l24-23z"/>
<glyph glyph-name="spell-book" unicode="&#167;" d="M410 512l-305 0c-24 0-44-18-44-41l0-396c0-20 17-36 38-36l20 0 0-19c0-7 4-13 10-17 7-4 16-4 23 0l19 9 19-9c7-4 16-4 23 0 6 4 10 10 10 17l0 19 189 0c16 0 29 12 29 28l3 61c4 6 7 14 7 21l0 325c0 21-19 38-41 38z m-217-478l-11 6c-7 3-15 3-22 0l-11-6 0 39 44 0z m217 37l-187 0 0 12c0 11-10 20-22 20l-60 0c-12 0-22-9-22-20l0-12-20 0c-4 0-6 2-6 4l0 38 318-1 0 0z m9 78c0-1 0-2-1-3-2-1-5-2-7-2l-318 1 0 326c0 5 6 9 12 9l305 0c5 0 9-3 9-6z m-119 205c0 6-4 12-10 15l-49 23-28 45c-4 5-10 8-16 8-6 0-12-4-15-10l-23-49-45-28c-5-4-8-10-8-16 0-6 4-12 10-15l49-22 28-46c3-5 9-8 15-8l1 0c6 0 12 4 15 10l22 49 46 28c5 4 8 10 8 16z m-73-21c-2-2-5-4-6-7l-15-32-18 30c-2 2-4 5-7 6l-32 15 29 18c3 2 6 5 7 8l15 31 18-29c2-3 4-6 7-7l32-15z m168-83l-34 23-15 37c-2 5-7 9-13 9-5 1-10-2-13-6l-23-33-37-16c-5-2-9-7-9-12-1-6 2-11 6-14l33-23 16-37c2-5 7-9 12-9 6-1 11 2 14 6l23 34 37 15c5 2 9 7 9 13 1 5-2 10-6 13z m-53-19c-3-1-5-3-7-5l-13-19-9 21c-1 3-3 5-5 7l-20 13 22 9c3 1 5 3 6 5l14 19 9-21c1-3 3-5 5-7l19-13z"/>
<glyph glyph-name="storm" unicode="&#2674;" d="M471 392c-10 9-26 16-43 20-9 2-25 4-39 0-20 49-51 91-128 85-43-3-73-20-93-50-15-25-21-55-25-85l-15 4c-33 10-62 7-84-7-23-14-37-40-42-74-6-42 11-77 44-91l1 0 15-5 118 0-67-90 111 0-41-63c-4-7-2-15 5-20 6-4 15-2 19 5l68 105-107 0 47 63 135 0-46-62 75 0-23-35c-4-7-2-15 4-20 7-4 15-2 19 5l51 77-71 0 26 35 52 0 7 1 1 1c19 6 36 19 48 37 12 19 18 42 18 67 0 37-16 76-40 97z m-76-1c0-1 0-3 0-4 0 1 0 3 0 4z m-27 2c-1 0-1-1-1-2 0 1 0 2 1 2z m70-176l-4 0-367 0-10 3c-32 14-29 50-28 61 4 26 14 45 29 55 20 12 45 8 62 3l28-7c3-1 9-3 15 2 7 4 6 11 6 14 0 0 0 1 0 2 4 29 9 60 23 82 14 23 37 35 71 37 61 5 85-25 104-79l0 0c0-2 1-4 2-6l6-12 12 6c2 1 4 3 6 5l2 1 0 0c11 7 44 0 57-13 15-13 32-43 32-76 0-38-18-68-46-78z"/>
<glyph glyph-name="sun" unicode="&#2673;" d="M499 265l-83 0c-6 78-68 141-146 147l0 87c0 7-6 13-14 13-7 0-13-6-13-13l0-88c-77-7-137-69-142-146l-88 0c-7 0-13-6-13-13 0-8 6-14 13-14l88 0c8-74 67-133 142-141l0-84c0-7 6-13 13-13 8 0 14 6 14 13l0 84c76 6 137 65 145 141l84 0c7 0 13 6 13 14 0 7-6 13-13 13z m-241-142c-72 0-130 59-130 131 0 73 58 131 130 131 73 0 131-58 131-131 0-72-58-130-131-131z m219 31l-48 25c-5 3-10 2-14 0-4-3-6-7-6-12 0-5 3-9 7-12l49-25c4-2 9-2 13 1 5 2 7 7 7 12-1 4-3 9-8 11z m-442 201l53-28c7-4 15-1 18 6 4 6 1 14-6 18l-53 27c-6 4-14 1-18-5-3-7-1-15 6-18z m325-255c-2 4-6 7-11 7-5 0-10-3-12-7-3-4-2-10 0-14l29-50c2-4 7-7 12-7 5 0 9 3 12 7 2 4 2 10-1 14z m-209 307c4-6 12-8 18-5 7 4 9 12 5 18l-28 49c-2 5-7 8-12 8-5 0-9-3-12-7-2-4-2-10 1-14z m271-76c2 0 4 0 6 2l46 25c7 4 9 12 5 18-3 7-11 9-18 6l-46-26c-5-3-8-9-6-15 1-6 7-10 13-10z m-330-156l-54-30c-7-4-9-12-5-18 3-7 11-9 18-5l54 30c6 4 9 12 5 18-4 6-12 9-18 5z m255 228c7-4 15-2 19 5l28 47c3 6 1 14-5 18-6 4-15 2-18-5l-28-47c-4-6-2-14 4-18z m-175-296c-6 4-15 2-18-4l-31-52c-4-6-1-14 5-18 6-4 15-2 18 4l31 52c4 6 1 15-5 18z"/>
<glyph glyph-name="sunfish" unicode="&#2696;" d="M261 340c-9 4-18 5-27 2-12-4-22-10-31-19-4-4-4-10 0-14 4-3 10-3 14 0 6 7 14 11 23 14 9 3 16-2 18-8 1-3 3-10-6-14l-1 0c-8-4-19-9-35-3-5 1-10-1-12-6-2-5 1-11 6-13 6-2 13-3 20-3 13 0 22 4 29 7l0 0c17 7 24 23 18 39-3 8-9 14-16 18z m-134 20c-22 0-39-16-39-36 0-20 17-37 39-37 21 0 38 17 38 37 0 20-17 36-38 36z m0-59c-14 0-26 10-26 23 0 13 12 23 26 23 13 0 25-10 25-23 0-13-12-23-25-23z m15 24c0 8-7 15-16 15-9 0-16-7-16-15 0-9 7-16 16-16 9 0 16 7 16 16z m328 10c-2 3-3 7-2 10 5 32 0 57-16 74-23 24-60 26-79 25l-15 45c-2 7-6 13-11 17-8 5-17 7-26 5-33-5-51-42-58-60-9 1-21 2-29 2l0 0c-71 0-123-15-158-45-29-25-46-61-52-109 0-5 1-9 5-12l18-16-17-8c-5-2-8-7-8-13 0-69 21-121 63-152 35-25 83-37 149-37 7 0 13 0 19 0l1 0c2-6 15-46 63-60 9-2 18-1 26 4 7 5 11 13 12 21l5 38 20-2 0 0c20-2 40 5 57 19 19 17 30 40 32 63 0 11-1 23-3 34-2 8 0 16 4 22 39 62 13 115 0 135z m-22-121c-1-1-2-3-3-4l-21 0c-7 0-13-6-13-13 0-7 6-13 13-13l15 0c0-4 1-7 1-11 2-9 3-19 3-28-1-16-10-32-23-44-11-10-25-14-37-13l-26 3c-11 1-20-6-21-16l-7-45 0-1c0-1 0-2-1-2-1-1-2-1-4-1-34 10-44 39-44 42l-4 20-11-1c-5 0-9 0-13 0-6 0-12 0-18 0-126 0-183 48-186 155l27 13c4 2 7 6 8 10 1 5-1 9-4 12l-28 25c6 39 19 66 42 86 30 26 76 39 141 39l0 0c9 0 29-2 36-3l12-2 2 11c4 13 19 49 41 53 2 0 4 0 6-1 1 0 1-1 1-1l0-1 18-52c3-9 12-14 21-13 10 0 44 2 61-17 11-11 14-28 10-51l-22 0c-8 0-13-6-13-13 0-8 5-13 13-13l22 0c1 0 3 0 4 0 1-1 1-2 2-3 13-20 30-60 0-107z"/>
<glyph glyph-name="teabag" unicode="&#41219;" d="M143 147l-37 6c-6 1-11-3-12-8 0-6 3-11 9-12l36-6c1 0 2 0 2 0 5 0 9 4 10 9 0 5-3 10-8 11z m76-43l-36 3c-3 0-7-1-9-4-2-3-2-7-1-10 2-3 5-5 8-6l37-3 1 0c5 0 10 4 10 10 0 5-4 10-10 10z m-39 65l35 1c5 0 9 4 9 10 0 5-5 10-10 9l-35-1c-6 0-10-4-10-10 0-5 5-9 10-9z m317 131l-61 45-27 6c-5 1-9-1-12-4l-11-16c-42 15-49 38-60 78 0 2-1 4-1 6-8 27-21 51-38 67-19 20-43 30-70 30-34-1-65-19-88-53-10-15-18-32-24-50 0-1 0-2 0-3l-58-14c-9-2-16-9-18-18l-19-92c0-3 0-6 0-10l64-254c3-11 12-18 23-18 2 0 4 0 6 1l246 58c7 2 12 6 16 11 3 5 4 12 2 17l-36 148c-1 1-1 2-1 4l-26 103c-1 3-2 6-4 9l-58 73c-5 8-15 11-24 9l-91-22c8 22 35 80 91 81 15 1 66-5 88-82 0-2 1-4 1-6 11-39 20-71 67-89l-5-7c-2-4-3-8 0-12l14-25 61-45c3-2 6-2 9-2 3 1 5 2 7 5l40 56c4 5 3 12-3 15z m-398-273l-42 167 250 25 34-135z m179 309z m-55 71l56-72 22-90-250-25-15 58 19 89z m226-160l-51 37-10 17 22 30 18-5 51-37z m-169-99l0 0-35-1c-6 0-10-5-10-10 0-5 4-10 10-10l0 0 35 1c6 1 10 5 10 10 0 6-4 10-10 10z m146 148l3-11c0 0 0-1 0-1l-3-12c0-1 0-2 1-2 1-1 2-1 3-1l11 4c0 1 1 1 1 1l11-3c1 0 2 1 3 1 1 1 1 2 1 3l-4 11c0 1 0 1 0 2l3 11c1 1 0 2 0 3-1 0-2 1-3 0l-11-4c-1 0-1-1-2 0l-11 2c-1 0-2-1-2-1-1-1-1-2-1-3z"/>
<glyph glyph-name="teacup" unicode="&#41218;" d="M464 194c15 25 26 56 34 92 6 35 11 69 14 104l0 0c0 2 0 3 0 4 0 62-83 101-212 101-121 0-204-40-208-100l-2 0 0 0c-12 5-28 7-43 2-19-6-33-22-41-47-8-25-8-52 0-77 8-25 23-47 43-61 19-14 43-24 71-30-17-13-31-32-31-59 0-24 12-58 65-82 36-16 86-24 144-24 126 0 211 44 211 110 0 34-21 54-45 67z m-165-64l0 0c-47 0-85 14-114 42-28 27-48 67-59 119-2 15-5 31-6 46 12-9 25-15 38-19 35-13 83-20 144-20 58 0 108 8 144 21 12 5 23 11 33 18-2-18-5-34-8-46-22-107-80-161-172-161z m-164 230c16 12 72 49 161 49l3 0c53-1 110-7 168-48-8-6-18-12-30-17-33-12-80-19-135-19-57 0-103 6-135 18-14 5-24 10-32 17z m165 109c109 0 185-31 185-75 0-5-1-11-4-16-63 46-127 53-182 54l-3 0c-96 0-156-40-175-55-2 5-2 9-2 14 0 45 76 78 181 78z m-268-127c5 16 13 26 23 30 12 4 27-1 37-6 1-32 4-61 8-80 6-30 15-56 26-78-24 5-45 14-62 26-31 22-45 68-32 108z m401-274c-34-16-82-25-135-25-54 0-101 8-133 23-33 14-49 34-49 57 0 20 11 35 35 47 5-6 10-12 16-18 34-32 79-49 133-49l0 0c64 1 114 24 149 69 23-11 34-26 34-45 0-30-28-49-50-59z"/>
<glyph glyph-name="third-eye" unicode="&#165;" d="M254 417c-31 0-55-24-55-54 0-30 24-54 55-54 30 0 55 24 55 54 0 30-25 54-55 54z m0-81c-15 0-28 12-28 27 0 14 13 26 28 26 15 0 27-12 27-26 0-15-12-27-27-27z m152 6c5 5 9 13 9 21 0 8-4 16-9 21-18 17-37 32-58 44-32 19-63 28-94 28-71 0-131-52-154-75-5-4-7-11-7-18 0-7 2-14 7-19 23-22 83-74 154-74 31 0 62 9 93 27 22 13 41 27 59 45z m-287 21c21 20 74 66 135 66 60 0 113-45 133-64 1-1 1-1 1-2 0-1 0-2-1-2-20-20-73-64-133-64-61 0-114 46-135 66z m359-282l34 21-33 48c12 10 22 21 31 33l-24 24c0-1-41-57-96-58l-1 0c-32 0-63 19-92 58l-23-25c35-46 74-70 115-70l1 0c3 0 6 0 9 0l24-56 37 12-23 55c3 1 7 3 10 5z m-355 68l-1 0c-55 1-96 57-96 58l-24-24c9-12 19-23 31-33l-33-48 34-21 31 47c3-2 7-4 10-5l-23-55 37-12 24 56c3 0 6 0 9 0l1 0c41 0 80 24 115 70l-23 25c-29-39-60-58-92-58z"/>
<glyph glyph-name="time-turner" unicode="&#2592;" d="M482 298l0-33-15 0c-5 69-43 132-103 167-59 36-132 40-196 12-22 19-42 34-59 43-9 5-36 19-53 4-16-13-9-38-6-47 4-16 14-37 28-62 1-3 3-6 4-8-22-32-36-69-39-108l-14 0 0 30-29 0 0-91 29 0 0 31 14 0c7-111 100-198 211-199l1 0c32 0 64 8 93 22 26-21 60-45 84-45 7 0 13 2 19 6 16 14 8 40 6 48-5 16-14 37-28 61 22 32 35 68 38 106l15 0 0-31 30 0 0 94z m-406 170c6 0 26-8 64-39-13-9-26-19-37-31-24 43-28 63-27 70z m225-194c17 0 31-9 40-19-37-17-62-7-69-4l-13 15c-12 26-9 51 9 77 4-1 8-4 10-7 10-13 9-37 8-45l-3-17z m-62-109c-8-13-20-27-39-41-40 16-69 51-80 93 12 11 25 21 40 29 2 1 5 2 8 3 10-12 21-25 31-38 14-16 27-32 41-46z m-38 91c14-1 27-5 38-13l13-16c1-4 4-16 0-32-10 11-20 23-30 35-7 9-14 17-21 26z m59-114c9-9 17-17 25-25-10-3-21-4-31-4l-1 0c-6 0-12 0-18 1 10 9 18 18 25 28z m16 28c6 14 9 31 8 47 5-1 11-2 16-2 24 0 56 8 92 38 0-1 0-1 0-2 0-52-29-99-76-123-13 13-27 27-40 42z m91 102c-11 12-28 25-50 30 0 14-3 35-15 51-4 5-8 10-14 13 6 5 11 9 17 14 40-17 70-50 82-92-6-6-13-11-20-16z m-121 92c-19-26-27-54-23-81-14 3-29 4-44 1-13 17-25 34-36 50 26 35 67 55 111 55l0 0c5 0 10 0 15 0-8-8-16-16-23-25z m-96-90c-2-1-3-2-4-2-11-6-21-12-30-20 0 19 3 37 11 53 7-10 14-21 22-31z m105-207l-1 0c-66 1-126 36-158 94-33 58-31 128 3 185 3-4 6-9 8-13-14-25-21-53-21-81 0-93 75-169 167-169l1 0c19 0 38 3 56 10 5-4 9-8 13-12-21-9-45-14-68-14z m176-23c-6 0-23 7-55 31 10 8 20 16 29 24 1 2 3 4 4 5 19-36 23-54 22-60z m6 206c0-49-19-95-53-130-10-9-21-18-32-25-4 4-9 8-13 12 51 30 82 85 83 144 0 92-75 168-168 168l0 0c-50 0-96-22-128-59-3 4-5 7-8 11 35 39 85 62 137 62l0 0c101-1 183-83 182-183z"/>
<glyph glyph-name="tornado" unicode="&#2672;" d="M435 290l-1 0c-28 23-41 43-38 58 0 0 0 0 0 0 4 6 6 10 7 13 11 12 32 20 42 23l51 14-435 114-5-10c-59-117-68-206-26-264 43-60 128-71 182-71 16 0 32 1 48 3 39 1 66-9 80-29 28-41-2-112-2-113l-12-28 29 9c89 27 139 68 151 120 17 81-67 157-71 161z m45-144l-3 3c-11-8-23-15-36-21-28-13-48-14-63-11 0 2 0 4-1 6 3 2 6 3 9 5 30 20 49 82 57 112 18-24 39-59 37-94z m-404 333l305-80c0 0 0 0-1 0-77-16-262-43-346-44 5 35 19 77 42 124z m-23-225c-14 20-21 44-21 72 79 2 242 25 330 40-66-42-195-109-284-137-10 7-18 16-25 25z m60-43c79 29 175 78 239 116-5-9-11-18-17-27-32-50-61-85-85-102-21-3-84-6-137 13z m178-14c33 32 64 80 85 116 8-14 22-29 40-45 1 0 5-3 9-8l-6 1c-7-35-27-95-48-109-1-1-2-1-4-2-1 2-2 5-4 7-15 22-39 35-72 40z m82-152c4 14 6 28 7 43 4-1 7-1 11-1 30 0 57 12 77 23-16-26-48-48-95-65z"/>
<glyph glyph-name="tower" unicode="&#2625;" d="M283 197l32 0 0-57-32 0z m-114 93l-12 7 8 13c3 4 1 9-2 12l-6 3c-3 2-9 1-11-3l-8-13-11 6c-5 3-11 2-13-3l-2-2c-2-5-1-10 3-13l12-7-8-13c-3-4-1-9 2-11l6-3c3-3 9-1 11 3l8 12 12-7c4-3 10-1 13 3l1 3c3 4 1 10-3 13z m293-114l0 0c20 34 30 72 30 112 0 123-100 224-223 224-26 0-52-5-77-14l0 0-163 0 0-32 105 0c-9-6-17-13-24-21l-58 1 0 0c-26 0-47-22-47-47l0-6c0-22 15-44 48-47-26-96 14-197 99-249l-60 0 0 0c-24 0-43-19-43-43l0-11c0-23 19-43 43-43l323 0 0 32-41 0 0 39 88 0c25 0 45 20 45 44l0 16c0 25-20 45-45 45z m-400 201c-22 0-25 11-25 16l0 6c0 8 7 15 15 15l32 0c-8-12-15-24-20-37z m59-216c-43 51-58 120-38 184l133-1 0 32-120 1c21 40 54 71 95 89l1 0 0 1c24 10 50 15 77 15 107 0 194-87 194-194 0-66-34-128-89-164l0 92 6 0c7-1 14 3 18 9 4 8 4 17-1 26l-36 68-34 121-1 2c-5 8-14 13-23 13-10 0-19-5-24-13l0-2-43-120-40-67c-4-7-5-17 0-24 5-9 13-14 23-13l7 0-1-118c-40 9-77 31-104 63z m113 89l33 55 35 98 27-97 30-56z m-153-207l0 11c0 6 5 11 11 11l106 0 27 0 0-33-133 0c-6 0-11 5-11 11z m170-11l0 183 97 0 0-183z m224 83c0-7-6-12-13-12l-68 0c17 11 32 25 46 41l22 0c7 0 13-6 13-13z m-27 354l11-6-7-13c-3-4-2-9 2-12l5-3c4-2 9-1 12 3l8 13 11-7c5-3 11-2 13 3l2 2c2 5 1 11-3 13l-12 8 8 13c2 4 1 9-3 11l-5 4c-4 2-9 1-11-3l-8-14-11 7c-5 3-11 1-13-3l-2-2c-3-5-1-11 3-14z"/>
<glyph glyph-name="tree" unicode="&#2640;" d="M452 143l-78 295c-12 42-52 73-99 74-14 0-33 0-46-1-39-4-72-29-84-65l0 0-84-292c-9-18-7-38 3-55 12-18 33-30 56-30l77 0 0 26-77 0c-14 0-27 7-34 18-6 9-7 21-2 31l1 1 85 294c8 25 32 44 61 46 12 1 30 1 44 1 35-1 65-23 74-55l79-297 1-1c3-8 3-17-2-24-6-9-16-14-27-14l-71 0 0-26 72 0c19 0 37 10 48 26 9 14 10 32 3 48z m-79 7l-9 24-89-34 0 63 75 31-10 24-65-28 0 56 53 26-12 23-41-20 0 66-26 0 0-70-46 23-11-24 57-28 0-55-70 30-10-24 80-34 0-63-93 37-10-24 103-40 0 0 0-109 26 0 0 112z"/>
<glyph glyph-name="tree-2" unicode="&#2648;" d="M503 98l-86 278c-3 9-11 15-21 15-10 0-18-6-21-15l-29-95-67 211c-4 12-15 20-27 20-12 0-22-8-26-20l-64-199-24 78c-3 10-12 17-22 17-11 0-20-7-23-17l-84-268c-2-8-1-16 4-23 4-6 11-9 19-9l72 0 0-69 27 0 0 69 68 0c7 0 14 3 19 9 5 7 6 15 4 23l-4 10 24 0 0-108 26 0 0 108 25 0-4-14c-2-7-1-15 3-21 4-5 10-9 17-9l76 0 0-69 26 0 0 69 71 0c7 0 14 3 18 9 4 6 5 13 3 20z m-308-1l-160 0 81 257 24-79 8-26-31-98c-3-9-2-19 4-27 5-7 13-11 22-11l47 0z m-52 43c-1 1-1 2-1 3l109 341c1 0 1 1 1 1 1 0 1-1 1-1l72-226 37-115c0-1 0-3-1-3l-78 0z m173-44l5 17 40 0c9 0 17 4 22 11 6 8 7 18 4 27l-27 84 6 20 30 97 80-256z"/>
<glyph glyph-name="tree-3" unicode="&#2633;" d="M490 270c-7 18-22 32-45 42-3 1-6 3-7 7-6 27-21 79-53 123-41 57-97 79-163 66l0 0c-1-1-26-8-51-28-22-17-49-48-56-97-9 1-19 2-28 2-23 0-40-6-52-19-18-20-20-54-4-100l1-2c0-1 1-2 1-3-11-7-19-25-12-49 7-25 27-40 53-40 2 0 4 0 7 0l60 0c13-38 39-54 60-61 11-4 22-5 34-5 2 0 4 0 6 0l0-106 27 0 0 105c2 0 3 0 4 0 13 0 25 2 37 5 32 10 52 31 60 62l53 0c27 0 51 14 61 36 11 22 13 44 7 62z m-282-133c-17 6-30 18-37 35l70 0 0-39c-11-1-22 1-33 4z m94 0c-11-4-22-5-34-5l0 40 72 0c-6-18-18-29-38-35z m155 84c-5-12-20-20-35-20l-343 0-1 0c-12-2-21 2-26 11-6 10-5 21-3 24 8 4 13 13 14 22 0 6-2 12-4 16l0 2c-12 34-13 59-3 70 12 13 41 12 63 6 6-1 11 0 16 3 4 3 7 8 7 13 3 37 18 67 46 89 12 10 26 18 41 23 54 11 99-8 133-55 30-41 44-92 48-113 3-12 12-22 24-27 15-7 25-15 29-25 5-13 0-29-6-39z"/>
<glyph glyph-name="tropic" unicode="&#2641;" d="M471 212c-4 3-9 4-14 2l-142-54 0 24 148 79c6 3 9 10 7 16l-32 99c-1 4-4 8-9 9-4 2-9 1-13-2l-114-88-3 29 99 87c4 3 6 7 5 12 0 5-3 9-7 11l-141 74c-4 3-9 3-13 0l-130-74c-3-3-6-6-7-11 0-4 2-9 5-12l91-86-5-30-107 86c-4 3-9 4-14 2-4-2-8-6-9-10l-20-97c-1-6 1-12 7-15l129-79 0-23-126 53c-5 2-10 1-13-1-4-3-7-7-7-12-3-59 14-112 48-152 27-31 55-45 60-48 3-1 5-1 8-1l97 16 114-16c0 0 1 0 2 0 2 0 4 1 6 2 35 18 63 54 83 108 10 29 18 59 22 89 1 5-1 10-5 13z m-109-186l-104 15 0 27 1-3 103 33-6 18-98-32 0 113 130 83-10 16-120-77 0 148 50 46-12 14-38-34 0 59-19 0 0-62-37 36-13-13 50-49 0-146-130 78-10-16 140-84 0-112-107 32-5-18 112-33 0-24-87-15c-18 10-35 24-48 40-27 32-42 71-42 117l127-52c4-2 9-2 13 1 4 3 6 7 6 12l0 47c0 5-2 9-7 12l-128 78 15 70 107-87c4-3 9-4 14-2 5 1 8 6 9 11l9 56c1 4-1 9-4 12l-84 80 110 63 120-63-92-79c-4-3-5-8-5-13l7-56c1-5 4-9 9-11 5-2 10-1 14 2l117 90 23-73-145-78c-5-2-8-7-8-12l0-47c0-5 2-9 6-12 4-3 9-3 13-2l139 53c-8-40-30-125-85-157z"/>
<glyph glyph-name="tulip" unicode="&#2642;" d="M416 219l0 12-13 0c-64 1-104-25-125-46-4-4-7-7-9-10l0 49c10 0 35 3 61 26 38 33 59 94 63 180 0 5-2 10-7 14-4 3-10 4-15 3-16-5-32-10-47-16-3 12-11 26-25 42-10 12-22 23-34 34-3 3-7 5-11 5l0 0c-4-1-8-2-11-5-12-11-23-23-33-36-13-16-21-30-24-42-15 6-31 11-47 16-6 1-11 0-16-3-4-4-6-9-6-14 4-86 25-147 63-180 27-24 53-26 62-26l0-79c-2 2-5 5-8 8-21 22-60 47-123 47l-2 0-13 0 0-13c0-1-1-34 18-72 16-33 52-77 128-101l0-12 26 0 0 45c78 24 114 68 131 102 18 38 17 70 17 72z m-103 51c-19-17-38-20-45-20l0 36 0 51-13-1 13 1 0 1 0 0 0 23c2 17 42 40 98 57-4-51-16-115-53-148z m-83 184c8 10 16 19 24 27 9-8 18-16 25-26 16-18 20-29 20-35-21-10-36-21-45-32-9 11-24 20-43 30 0 4 2 15 19 36z m-33-186c-37 33-50 97-53 148 56-17 95-40 97-57l0-23 1-50 0-38c-5 0-25 1-45 20z m-59-144c-8 15-13 31-15 47 38-2 68-14 92-38 20-19 27-39 27-39l0 0 0-54c-49 17-85 45-104 84z m236 33c-19-39-55-67-105-84l0 55 1-1c0 0 7 20 27 40 24 23 55 36 92 38-2-17-7-33-15-48z"/>
<glyph glyph-name="unlock" unicode="&#2593;" d="M461 314l-231 0 0 108c0 50-44 90-99 90l-23 0c-59 0-107-43-107-97l0-39 32 0 0 39c0 36 34 65 75 65l23 0c37 0 68-26 68-58l0-108-15 0c-29 0-53-24-53-54l0-209c0-28 22-51 50-51l274 0c31 0 56 26 56 57l0 206c0 28-23 51-50 51z m18-257c0-14-11-25-24-25l-274 0c-10 0-18 8-18 19l0 209c0 12 9 22 21 22l277 0c10 0 18-8 18-19z m-159 173c-33 0-61-29-61-64 0-27 19-52 45-59l0-55 32 0 0 55c26 7 45 32 45 59 0 35-28 64-61 64z m0-93c-16 0-29 13-29 29 0 17 14 32 29 32 15 0 29-15 29-32 0-16-13-29-29-29z"/>
<glyph glyph-name="watering-can" unicode="&#2647;" d="M471 322l-152-115-18 158c-1 7-4 14-10 18 1 4 1 7 0 10 0 2 0 3 0 4 0 24-10 46-28 62-18 17-42 25-67 25-54 0-97-39-97-87 0-4 0-8 1-13-6-4-10-11-11-18l-1-10c-22 10-40 11-54 3-26-14-30-49-33-78 0-2 0-4 0-6-6-47 24-89 65-94l-15-123c-1-8 1-16 6-21 5-6 13-9 20-9l228 0c16 0 30 12 30 28l177 231z m-1-34l6-5-144-189-10 83z m-274 171c39 0 70-27 70-62 0-2 0-3 0-5 0-1 1-2 1-3l-142 0c-1 3-1 5-1 8 0 35 32 62 72 62z m-170-187c1 2 1 4 1 6 2 22 6 51 19 58 10 5 26 0 38-7l-15-123c-27 5-46 34-43 66z m282-217c0-1-1-1-3-1l-228 0c0 0 0 0 0 0 0 0 0 0 0 0l38 309c0 0 0 0 0 0l160 0c0 0 0 0 0 0l34-305c1-1 0-2-1-3z"/>
<glyph glyph-name="weather-vane" unicode="&#2665;" d="M441 400c7 0 13 6 13 14-1 7-7 13-14 12-38 0-72-13-92-35-13-13-19-31-19-50l-18 0c0 1 0 1 0 2-1 23 6 43 21 59 21 23 58 36 104 37 7 0 13 6 13 14 0 7-6 13-14 12-52-1-96-17-122-46-20-21-29-48-28-78 0 0 0 0 0 0l-32 0 0 27 0 37 0 0c0 25-9 47-25 62-6 6-13 11-20 14l12 9c4 3 5 9 2 14-3 4-9 5-14 2l-20-15c-1-1-2-2-3-3l-1 0 0 14c0 3-1 5-3 7-2 2-4 3-7 3-5 0-10-4-10-10l0-14c0 1-1 1-1 2l-21 15c-5 3-11 2-14-2-3-4-2-11 2-14l13-9c-9-6-17-15-23-26-3-5-6-11-8-17-1 1-3 1-5 1l-34 0c-7 0-14-5-15-12-1-7 4-14 11-16l33-10c1 0 2-1 2-1 0-7-1-15-1-23l0-21c-2-1-4-3-6-4-17-14-17-36-17-52 0-42 13-76 38-101 26-26 66-39 117-41l0-50-111 0 16 12c5 5 6 13 2 19-4 5-13 7-18 2l-47-35c-3-3-4-6-5-9l-2-8 54-41c5-4 14-3 18 3 4 5 3 13-2 18l-17 13 112 0 0-68c0-7 5-13 13-13 7 0 13 6 13 13l0 68 97 0 36-28c6-5 14-4 19 2 4 6 3 14-3 18l-24 19 24 18c6 4 7 13 3 18-5 6-13 7-19 3l-31-25c-2 1-3 1-4 1l-98 0 0 51c56 3 97 23 120 59 22 34 25 77 25 114l0 5c0 1 1 3 0 4 0 6 2 12 6 16 5 6 14 9 25 10 7 0 13 6 12 13 0 7-6 13-13 13-17-1-33-7-43-18-8-9-13-21-13-33l-24 0 0 0c-1 12 3 23 12 33 14 16 42 26 73 26z m-116-78c-4-19-19-33-36-33-18 0-33 14-37 33z m-82-145c-50 0-87 12-112 36-21 20-32 49-32 86 0 14 0 29 10 37 1 0 2 0 2 1 4 1 12 4 12 14l0 25c0 28 5 52 14 69 9 16 21 24 37 24 29 0 59-22 59-64l0-37 0-36c0 0 0-1 0-1 0-1 0-2 0-3l0-6 1 0c4-29 27-51 55-51 27 0 50 22 55 51l42 0c-1-77-22-145-143-145z m-69 266c7-3 10-10 7-17-2-6-10-9-16-6-7 2-10 10-7 16 3 7 10 10 16 7z"/>
<glyph glyph-name="werewolf" unicode="&#2600;" d="M279 512c-122 0-221-99-221-221 0-15 2-31 5-47l7-24-51-18c-5-2-8-5-10-10-1-5-1-14 4-19 5-8 24-20 44-26 11-4 22-6 33-6l-49-45 0-1c-5-5-6-13-2-19 3-6 10-9 17-8l1 1 100 30-15-80c-1-6 1-12 7-16 5-4 12-4 18-1l0 1 81 67 13-57c1-7 7-12 14-13 8 0 14 4 17 11l23 63c106 17 185 109 185 217 0 122-99 221-221 221z m1-452l-8 35c-1 5-5 10-10 12-5 2-10 1-15-2l0 0-71-58 13 67c1 5-1 11-5 14-4 4-9 6-15 5l0 0-68-21 45 41 2 4c2 6 0 13-5 17-4 4-11 5-17 2-31-15-62-4-79 6l109 39c3 1 5 2 7 4l4 2 68 72c1 1 3 2 4 2l2-1 55 4c6-1 13 1 17 6l44 40 16-34z m143 104c-25-29-59-50-97-59l75 205c2 5 2 11-1 16l-25 51c-3 5-7 8-12 9-5 1-10-1-13-4l-54-50-54-3c-10 1-20-3-27-10l-67-70-1-1-51-18-5 21c-3 13-5 27-5 40 1 106 87 193 193 193 106 0 192-87 192-193 0-46-17-92-48-127z m-391 287l11 0 0-13c0-4 3-7 7-7l5 0c4 0 7 3 7 7l0 13 12 0c4 0 8 3 8 8l0 2c0 5-4 8-8 8l-12 0 0 14c0 4-3 7-7 7l-5 0c-4 0-7-3-7-7l0-14-11 0c-5 0-8-3-8-8l0-2c0-5 3-8 8-8z m459-378l-11 0 0 13c0 4-4 7-8 7l-5 0c-4 0-7-3-7-7l0-13-11 0c-4 0-8-4-8-9l0-2c0-4 4-8 8-8l11 0 0-13c0-4 3-7 7-7l5 0c4 0 8 3 8 7l0 13 11 0c5 0 9 4 9 8l0 2c0 5-4 8-9 9z m4 405l-12 0 0 14c0 4-3 7-7 7l-5 0c-4 0-7-3-7-7l0-14-11 0c-4 0-8-3-8-8l0-2c0-5 4-8 8-8l11 0 0-13c0-4 3-7 7-7l5 0c4 0 7 3 7 7l0 13 12 0c5 0 8 3 8 8l0 2c0 5-3 8-8 8z m-336-177l-12 0 0 13c0 4-3 7-7 7l-5 0c-4 0-7-3-7-7l0-13-11 0c-5 0-8-4-8-9l0-2c0-4 3-8 8-8l11 0 0-13c0-4 3-7 7-7l5 0c4 0 7 3 7 7l0 13 12 0c4 0 8 4 8 8l0 2c0 5-4 9-8 9z m140 131l-11 0 0 14c0 4-4 7-8 7l-5 0c-4 0-7-3-7-7l0-14-11 0c-4 0-8-4-8-8l0-2c0-5 4-9 8-9l11 0 0-12c0-4 3-8 7-8l5 0c4 0 8 4 8 8l0 12 11 0c5 0 9 4 9 9l0 2c0 4-4 8-9 8z"/>
<glyph glyph-name="wind" unicode="&#2678;" d="M14 251l361 0c72 0 100 21 111 39 21 32 23 72 4 101-10 16-27 28-48 35-23 7-51 9-85 4-7-1-13-8-11-15 1-8 8-13 15-12 53 7 90-2 106-27 15-23 9-52-4-71-10-17-43-26-88-26l-361 0c-8 0-14-6-14-14 0-8 6-14 14-14z m497-74c-5 26-27 44-53 44l-99 0c-7 0-14-6-14-13 0-8 7-14 14-14l99 0c13 0 24-9 26-21 1-7-1-9-1-10-2-2-8-7-28-7-7 0-14-6-14-14 0-7 7-13 14-13 24 0 40 5 49 16 5 6 10 17 7 32z m-265 12l-232 0c-8 0-14-6-14-14 0-8 6-14 14-14l232 0c10 0 20-4 27-11 5-5 10-13 9-20-1-6-8-14-21-22-8-2-23-3-29 3-5 4-4 14-3 21 1 7-4 15-11 16-8 1-15-4-16-12-4-20 0-36 12-46 10-8 22-11 33-11 8 0 15 1 23 3l1 1 1 0c23 12 35 27 38 43 1 10 0 25-17 42-12 13-29 21-47 21z"/>
<glyph glyph-name="witch-hat" unicode="&#169;" d="M488 123l-67-81-53 346c-1 12-10 23-22 27l-1 1-157 34c-12 3-25-1-33-11l-129-131-1-1c-5-7-3-16 1-21 3-5 9-8 15-8l116 11-59-254-75 83-23-21 87-96 340 0 85 102z m-345-31l65 7-6-67-73 0z m96 10l46 5 16-75-68 0z m77 9l62 6 13-85-58 0z m-134 201c-5 6-13 9-21 9l-87-8 104 106 1 1 1-1 156-33c1-1 1-1 1-2l0-1 36-235-222-24 38 165 0 1c1 8-1 16-7 22z m177 114c40-2 49-39 51-50 0-4 2-7 5-9 1 0 2-1 3-1 2-1 3-1 5-1l1 0c6 0 12 5 12 12 0 34 46 47 55 49 5 1 9 6 9 11l0 3c0 5-4 10-10 10-40 2-51 39-55 51l0 1c-2 6-7 9-13 9-7 0-13-5-13-12-2-34-38-47-51-49-6 0-11-6-11-12 0-7 6-12 12-12z m65 52c9-20 23-34 40-41-15-7-33-18-42-36-7 16-19 31-37 38 15 7 31 20 39 39z m-408-293c30 7 45-19 49-27 1-3 3-4 6-5 1-1 2-1 3-1 1 0 2 0 3 1l1 0c5 2 8 6 7 11-8 27 24 46 31 49 4 2 5 7 4 11l-1 2c-1 4-5 7-9 6-31-8-47 18-53 26l-1 1c-2 4-7 5-11 4-5-1-8-7-7-12 6-26-19-44-28-48-5-2-7-7-6-12 2-5 7-8 12-6z m37 53c12-13 25-21 40-22-10-8-21-21-24-37-9 11-21 20-37 21 10 9 20 22 21 38z"/>
</font>
</defs>
</svg>
