<?xml version="1.0" encoding="UTF-8"?>
<svg id="Layer_1" data-name="Layer 1" xmlns="http://www.w3.org/2000/svg" width="400" height="400" viewBox="0 0 400 400">
  <defs>
    <style>
      .cls-1 {
        fill: #000;
        stroke-width: 0px;
      }
    </style>
  </defs>
  <polygon class="cls-1" points="43.7663 318.1628 35.1904 348.6777 11.6938 358.4619 35.8511 367.0378 45.6353 399.2617 54.2112 366.3772 77.3239 356.593 53.5504 348.0171 43.7663 318.1628"/>
  <path class="cls-1" d="M71.2311,236.0066c0,9.3086,8.0171,16.8809,17.8716,16.8809s17.8721-7.5723,17.8721-16.8809-8.0176-16.8799-17.8721-16.8799-17.8716,7.5723-17.8716,16.8799Z"/>
  <path class="cls-1" d="M346.8702,187.7947c0-9.3086-8.0166-16.8809-17.8711-16.8809s-17.8721,7.5723-17.8721,16.8809c0,8.7686,7.1172,15.9907,16.1807,16.7988.5483-.1042,1.1127-.1641,1.6914-.1641s1.1431.0598,1.6914.1641c9.0632-.8081,16.1797-8.0305,16.1797-16.7988Z"/>
  <path class="cls-1" d="M158.9581,162.5208c-15.4379-3.8928-26.8716-17.5562-26.8716-33.7681s11.4337-29.8743,26.8716-33.7671V15.8647c-22.1009,5.9233-42.637,15.6653-60.8555,28.4854v157.8894c15.438,3.8928,26.8721,17.5559,26.8721,33.7671,0,19.2334-16.0923,34.8809-35.8721,34.8809s-35.8716-15.6475-35.8716-34.8809c0-16.2112,11.4337-29.8743,26.8716-33.7671V58.6882C40.7715,94.0242,16.027,145.2747,16.027,202.3103c0,89.3499,60.7143,164.5078,143.1337,186.5002-.1305-.6101-.2026-1.2419-.2026-1.8909v-224.3989Z"/>
  <path class="cls-1" d="M185.8297,128.7527c0-9.3076-8.0171-16.8799-17.8716-16.8799s-17.8716,7.5723-17.8716,16.8799,8.0171,16.8809,17.8716,16.8809,17.8716-7.5723,17.8716-16.8809Z"/>
  <path class="cls-1" d="M257.1368,15.3259v170.6406c0,4.9707-4.0293,9-9,9s-9-4.0293-9-9V11.625c-9.8043-1.5347-19.851-2.3386-30.0861-2.3386-10.9838,0-21.7487.9316-32.2315,2.6941.085.4944.1389.9998.1389,1.5183v81.4868c15.438,3.8928,26.8716,17.5559,26.8716,33.7671s-11.4336,29.8752-26.8716,33.7681v224.3989c0,2.0461-.6907,3.9268-1.8409,5.4385,11.0168,1.9539,22.3557,2.9758,33.9335,2.9758,10.2351,0,20.2817-.804,30.0861-2.3384v-43.1509c0-1.9126,4.0293-3.4631,9-3.4631s9,1.5505,9,3.4631v39.45c22.9194-5.877,44.1904-15.8611,62.9923-29.1145-.0787-.4788-.13-.9666-.13-1.4675v-137.1506c-15.4384-3.8928-26.8721-17.5559-26.8721-33.7673,0-19.2334,16.0918-34.8809,35.8721-34.8809s35.8711,15.6475,35.8711,34.8809c0,16.2112-11.4336,29.8743-26.8711,33.7671v124.3704c39.3311-35.3362,64.0754-86.5864,64.0754-143.6218,0-90.0022-61.5995-165.6157-144.9377-186.9844ZM298.0596,268.5522l-35.1611,14.8877-13.0428,50.0298-14.8889-49.0222-36.7524-13.0439,35.7449-14.8879,13.0432-46.4248,14.8887,45.4172,36.1686,13.0442Z"/>
</svg>