<?xml version="1.0" encoding="UTF-8"?>
<svg id="Layer_1" data-name="Layer 1" xmlns="http://www.w3.org/2000/svg" width="400" height="400" viewBox="0 0 400 400">
  <defs>
    <style>
      .cls-1 {
        fill: #000;
        stroke-width: 0px;
      }
    </style>
  </defs>
  <path class="cls-1" d="M348.5676,118.4539c-20.1136-.4399-35.9794-6.7432-47.1564-18.7361-21.6842-23.2651-20.1185-60.9756-20.1014-61.3267l.655-12.2996H103.3027l.6552,12.2996c.0203.3752,1.7462,37.7737-20.0096,61.229-11.1833,12.0564-27.0801,18.3926-47.2482,18.8337l-12.6299.2761,1.2653,12.5696c.1543,1.5347,3.6987,35.344,19.3904,78.5781.5701,1.571,1.4456,2.939,2.5315,4.0701,2.9457,7.5513,12.9124,31.5803,30.5298,59.5393,3.0718-4.9343,5.866-10.8066,8.8196-18.0779,10.2413,25.2112,18.5437,33.6765,43.2686,44.1194-10.1509,4.2874-17.5308,8.2434-23.416,13.1599,7.557,8.866,15.8569,17.5688,24.9224,25.7473.6682,1.0894,1.5203,2.0911,2.5735,2.9429,17.0251,13.7632,35.739,25.0029,55.7767,33.4858l.0284-.0664,3.4558,1.8088,25.8821-13.0076-.1733-.2681c48.9613-27.6711,88.0312-73.4385,113.86-133.8008,22.3129-52.1453,26.9603-96.373,27.1473-98.231l1.2654-12.5696-12.6299-.2761ZM336.5934,139.7178c-.1609,1.6013-4.1685,39.7302-23.4539,84.8008-11.3633,26.5559-25.7021,49.9709-42.6182,69.594-17.8824,20.7446-38.6938,37.2446-61.9938,49.2285l.0592.0894-15.8352,7.7695-5.6294-2.8767c-19.113-8.4751-36.7539-19.8831-52.5576-33.9985-2.9094-2.5989-3.0975-7.0891-.4009-9.9084,2.5593-2.6758,6.7815-2.8523,9.5422-.3853,14.7173,13.1497,31.1335,23.7766,48.9108,31.6697,25.6398-11.3777,48.3346-28.3699,67.4777-50.5769,15.9929-18.5522,29.5815-40.7646,40.3887-66.0217,13.4309-31.3882,19.1615-59.6492,21.3025-72.8669-17.689-.115-32.3326-5.6785-43.6196-16.5938-20.1154-19.4519-23.5264-50.3823-23.9899-64.376h-123.0844c-.4634,13.9937-3.874,44.9241-23.9897,64.376-11.2844,10.9131-25.927,16.4766-43.6107,16.5938,2.5089,15.4026,9.8982,51.2227,28.5599,88.5532,1.6636,3.3279.3394,7.3774-2.947,9.1221-3.4231,1.8169-7.6625.4446-9.3966-3.0217-25.7931-51.5552-30.8243-99.0945-31.0332-101.1709l-.8313-8.2561,8.2673.7087c17.3966,1.491,31.3184-2.6775,41.3835-12.3879,21.5773-20.8167,19.8622-60.6514,19.8423-61.051l-.3585-7.2249,7.2329-.0081h144.097l-.3765,7.241c-.0194.3916-1.7347,40.2263,19.8431,61.043,10.0651,9.7104,23.9897,13.8765,41.3827,12.3879l8.2673-.7087-.8309,8.2561ZM168.9196,200.7576c-7.1243-17.1995-12.8997-22.9749-30.0994-30.0994,17.1997-7.1243,22.9751-12.8997,30.0994-30.0994,7.1244,17.1997,12.8997,22.9751,30.0994,30.0994-17.1997,7.1245-22.975,12.8999-30.0994,30.0994ZM213.5998,207.2441c8.0527,0,14.5808,6.9509,14.5808,15.5251s-6.5281,15.5249-14.5808,15.5249-14.5808-6.9509-14.5808-15.5249,6.5281-15.5251,14.5808-15.5251Z"/>
  <path class="cls-1" d="M43.3381,299.5286c24.7249,10.4429,33.0273,18.9084,43.2686,44.1196,6.0367-14.8606,11.4028-23.9011,19.8525-30.9597-11.1646-13.0984-20.7009-26.551-28.6721-39.2014-7.5785,12.1748-16.855,18.6106-34.449,26.0415Z"/>
</svg>