<?xml version="1.0" encoding="UTF-8"?>
<svg id="Layer_1" data-name="Layer 1" xmlns="http://www.w3.org/2000/svg" width="400" height="400" viewBox="0 0 400 400">
  <defs>
    <style>
      .cls-1 {
        fill: #000;
        stroke-width: 0px;
      }
    </style>
  </defs>
  <path class="cls-1" d="M337.0213,172.7329c49.4949-28.198,57.2363-48.4233,56.6193-59.0979-.3062-5.2976-3.7216-9.646-8.3589-11.0232-21.949-6.5195-61.8758,14.0078-94.1516,34.4177-2.2106-1.9536-4.4706-3.8904-6.7822-5.7981-31.8307-26.2651-63.3953-39.583-93.8188-39.583-73.2325,0-134.4299,78.3711-151.4418,102.3914-4.4005,6.2141-4.4005,15.5862-.0004,21.8003,10.6742,15.0703,38.7447,51.5334,76.2645,76.6147-47.395,25.4045-75.404,25.5032-75.404,25.5032-26.3558.7102,21.5776-48.5054,21.5776-48.5054-48.5323,30.1736-55.6019,50.6978-54.6334,61.3398.4807,5.282,4.0371,9.4897,8.7168,10.6794,24.8727,6.3228,71.2753-22.3496,104.2086-46.1179,21.2125,13.3853,45.2324,22.8779,70.712,22.8779,30.4226,0,61.9881-13.3179,93.8181-39.5835,26.0508-21.4985,45.8616-46.5959,55.3518-59.6433,5.7383-7.8879,5.7383-20.2441,0-28.1301-7.9636-10.9473-23.1918-30.3733-43.2621-49.0342,40.541-17.5713,63.7468-16.7114,63.7468-16.7114,26.3617.3521-23.1623,47.6035-23.1623,47.6035ZM189.8949,301.9204c-53.8425,0-97.6464-43.8032-97.6464-97.6462s43.804-97.6465,97.6464-97.6465,97.6459,43.8035,97.6459,97.6465-43.804,97.6462-97.6459,97.6462Z"/>
  <path class="cls-1" d="M189.8949,117.0732c-48.0827,0-87.201,39.1182-87.201,87.2009s39.1183,87.2009,87.201,87.2009,87.2004-39.1184,87.2004-87.2009-39.1178-87.2009-87.2004-87.2009ZM213.7768,208.5588l23.919,29.7668-37.946-18.7231-10.0433,59.9519-9.7566-59.8879-38.0362,18.9688,24.0618-29.9219-43.8089-7.6353,43.8461-7.9187-23.919-29.7666,37.946,18.7229,11.905-58.9717,7.8949,58.9077,38.0362-18.9688-24.0618,29.9219,43.8089,7.6353-43.8461,7.9187Z"/>
  <ellipse class="cls-1" cx="55.0972" cy="63.118" rx="15.2302" ry="16.2164"/>
  <path class="cls-1" d="M107.7875,93.4714c4.2057,0,7.6152-3.6301,7.6152-8.1082s-3.4094-8.1084-7.6152-8.1084-7.6151,3.6304-7.6151,8.1084,3.4094,8.1082,7.6151,8.1082Z"/>
</svg>